<?xml version="1.0" encoding="iso-8859-1"?>
<!-- Uploaded to: SVG Repo, www.svgrepo.com, Generator: SVG Repo Mixer Tools -->
<svg fill="#000000" height="800px" width="800px" version="1.1" id="Layer_1" xmlns="http://www.w3.org/2000/svg" xmlns:xlink="http://www.w3.org/1999/xlink" 
	 viewBox="0 0 512.002 512.002" xml:space="preserve">
<g>
	<g>
		<path d="M448.001,85.333h-87.469C350.647,36.648,307.602,0,256.001,0S161.355,36.648,151.47,85.333H64.001
			c-35.355,0-64,28.645-64,64V448c0,35.355,28.645,64,64,64h21.292c0.014,0,0.027,0.002,0.041,0.002h85.333
			c0.014,0,0.027-0.002,0.041-0.002h170.585c0.014,0,0.027,0.002,0.041,0.002h85.333c0.014,0,0.027-0.002,0.041-0.002h21.292
			c35.355,0,64-28.645,64-64V149.333C512.001,113.978,483.356,85.333,448.001,85.333z M405.334,469.333h-42.667V128.002h42.667
			V469.333z M106.668,469.333V128.002h42.667v341.331H106.668z M192.001,128h128v341.333h-128V128z M256.001,42.667
			c27.863,0,51.571,17.81,60.358,42.667H195.644C204.43,60.477,228.138,42.667,256.001,42.667z M42.668,448V149.333
			c0-11.791,9.542-21.333,21.333-21.333v341.333C52.21,469.333,42.668,459.791,42.668,448z M469.334,448
			c0,11.791-9.542,21.333-21.333,21.333V128c11.791,0,21.333,9.542,21.333,21.333V448z"/>
	</g>
</g>
</svg>