<svg xmlns="http://www.w3.org/2000/svg" enable-background="new 0 0 66 66" viewBox="0 0 66 66" id="ApprovedCandidate"><rect width="42.2" height="51.3" x="1.8" y="13.4" fill="#d4dbd8" class="colord4d8db svgShape"></rect><rect width="20.6" height="51.3" x="1.8" y="13.4" fill="#e6e8e7" class="colore6e6e8 svgShape"></rect><path fill="#466a5b" d="M31.8,9.3H14.1c-0.3,0-0.6,0.3-0.6,0.6v10.9h19V9.9C32.4,9.6,32.1,9.3,31.8,9.3z" class="color465c6a svgShape"></path><rect width="19" height="6.4" x="13.4" y="14.4" fill="#3b564b" class="color3b4c56 svgShape"></rect><path fill="#d4dbd8" d="M30.4,20.1h-3.6c-0.5,0-0.9-0.4-1-0.9L24.1,7.8c-0.1-0.5,0.2-0.9,0.7-1.1l0.9-0.3
					c1.1-0.4,1.7-1.5,1.5-2.7c-0.2-1-1.1-1.7-2-1.7l-4.4,0c-0.9,0.1-1.8,0.8-2,1.7c-0.3,1.1,0.4,2.3,1.5,2.7l0.9,0.3
					c0.5,0.2,0.7,0.6,0.7,1.1l-1.7,11.4c-0.1,0.5-0.5,0.9-1,0.9h-3.6v-1h3.6l1.7-11.4l-0.9-0.3c-1.6-0.6-2.5-2.2-2.1-3.9
					c0.3-1.4,1.5-2.4,2.9-2.5l4.4,0c1.5,0.1,2.6,1.1,3,2.5c0.4,1.6-0.5,3.3-2.1,3.9l-0.9,0.3l1.7,11.4l3.6,0V20.1z" class="colord4d8db svgShape"></path><rect width="5" height="2.5" x="13.4" y="18.3" fill="#466a5b" class="color465c6a svgShape"></rect><rect width="5" height="2.5" x="27.4" y="18.3" fill="#466a5b" class="color465c6a svgShape"></rect><rect width="12.5" height="12.5" x="7.6" y="26.1" fill="#52cc99" class="color45bbdd svgShape"></rect><path fill="#ffffff" d="M17.4,35c-0.6-0.8-2.6-1.4-2.6-1.4l0,0v-0.9c0.5-0.3,0.8-0.8,1-1.4c0,0,0,0,0,0c0.1,0,0.3-0.2,0.3-0.5
						c0-0.2,0-0.5-0.1-0.5c0-1.5-0.3-2.6-2.3-2.6c-1.8,0-2.2,1.2-2.3,2.6c-0.1,0.1-0.1,0.3-0.1,0.5c0,0.3,0.2,0.5,0.3,0.5
						c0,0,0,0,0,0c0.2,0.7,0.6,1.2,1.2,1.5v0.8c0,0-2,0.6-2.6,1.4s-0.5,3.6-0.5,3.6h4h4C17.9,38.6,18,35.8,17.4,35z" class="colorffffff svgShape"></path><rect width="12.5" height="12.5" x="7.6" y="43.8" fill="#43ac80" class="color6fac43 svgShape"></rect><path fill="#ffffff" d="M17.4,52.7c-0.6-0.8-2.6-1.4-2.6-1.4l0,0v-0.9c0.5-0.3,0.8-0.8,1-1.4c0,0,0,0,0,0
						c0.1,0,0.3-0.2,0.3-0.5c0-0.2,0-0.5-0.1-0.5c0-1.5-0.3-2.6-2.3-2.6c-1.8,0-2.2,1.2-2.3,2.6c-0.1,0.1-0.1,0.3-0.1,0.5
						c0,0.3,0.2,0.5,0.3,0.5c0,0,0,0,0,0c0.2,0.7,0.6,1.2,1.2,1.5v0.8c0,0-2,0.6-2.6,1.4s-0.5,3.6-0.5,3.6h4h4
						C17.9,56.3,18,53.5,17.4,52.7z" class="colorffffff svgShape"></path><path fill="#8eac9f" d="M39.4 38.5H24.9V26.1h14.5V38.5zM25.9 37.5h12.5V27.1H25.9V37.5zM39.4 56.2H24.9V43.8h14.5V56.2zM25.9 55.2h12.5V44.8H25.9V55.2z" class="color8ea0ac svgShape"></path><polygon fill="#4ae8a6" points="31.4 36.1 28.3 33 29.7 31.6 31.4 33.3 35.4 29.2 36.8 30.6" class="colore8664a svgShape"></polygon><path fill="#e6e8e7" d="M62.2,49.8c-2.6-3.4-9.7-6.2-9.7-6.2l-5.3-0.5l-5.3,0.5c0,0-7.1,2.8-9.7,6.2C29.5,53.2,30.2,65,30.2,65h17
		h17C64.1,65,64.8,53.2,62.2,49.8z" class="colore6e6e8 svgShape"></path><rect width="7.9" height="9.4" x="43.2" y="36.4" fill="#9fd5be" class="colord5b79f svgShape"></rect><rect width="4" height="9.4" x="47.2" y="36.4" fill="#8ac6ad" class="colorc6a28a svgShape"></rect><polygon fill="#39d996" points="48.3 44.5 47.2 44.5 47.2 48.5 48.3 48.5 49.5 46.5" class="colord95239 svgShape"></polygon><polygon fill="#4ae8a6" points="46 44.5 44.8 46.5 46 48.5 47.2 48.5 47.2 44.5" class="colore8664a svgShape"></polygon><path fill="#466a5b" d="M56,32.8c0.3-1.1,0.4-2.2,0.4-3.3c0-6.3-1.4-11.4-9.6-11.4c-7.8,0-9.6,5.1-9.6,11.4c0,1.2,0.1,2.3,0.4,3.3
		H56z" class="color465c6a svgShape"></path><path fill="#8ac6ad" d="M46.8,23.3c-5,0-9.1,1-9.1,6.9s4.1,10.7,9.1,10.7s9.1-4.8,9.1-10.7S51.8,23.3,46.8,23.3z" class="colorc6a28a svgShape"></path><ellipse cx="55.8" cy="31.4" fill="#9fd5be" rx="2.3" ry="1.1" transform="rotate(-81.083 55.844 31.435)" class="colord5b79f svgShape"></ellipse><ellipse cx="37.7" cy="31.4" fill="#9fd5be" rx="2.3" ry="1.1" transform="rotate(-98.917 37.737 31.434)" class="colord5b79f svgShape"></ellipse><path fill="#466a5b" d="M39.3,23.4l-0.4,8.5c0,0.3-0.4,0.3-0.5,0l-0.8-3.2L39.3,23.4z" class="color465c6a svgShape"></path><polygon fill="#d4dbd8" points="47.2 44.6 51.3 48.3 52.7 43.6 51.1 41.5" class="colord4d8db svgShape"></polygon><polygon fill="#ffffff" points="47.2 44.6 43 48.3 41.6 43.6 43.2 41.5" class="colorffffff svgShape"></polygon><polygon fill="#39d996" points="47.2 65 44.8 65 46 48.5 47.2 48.5" class="colord95239 svgShape"></polygon><polygon fill="#4ae8a6" points="49.5 65 47.2 65 47.2 48.5 48.3 48.5" class="colore8664a svgShape"></polygon><path fill="#466a5b" d="M42.1,43.6L47.1,65h-17c0,0-0.7-11.8,1.9-15.2c1.8-2.3,5.6-4.4,7.9-5.4l0,0c1.1-0.5,1.8-0.7,1.8-0.7
		L42.1,43.6z" class="color465c6a svgShape"></path><path fill="#28483b" d="M64.1,65h-17l5.1-21.4l0.2,0c0,0,0.7,0.3,1.8,0.8c2.3,1.1,6.1,3.1,7.9,5.4C64.8,53.2,64.1,65,64.1,65z" class="color283a48 svgShape"></path><polygon fill="#466a5b" points="54.3 44.4 54.3 49.3 52.3 50.7 53.1 53.1 47.1 65 52.2 43.6 52.3 43.1" class="color465c6a svgShape"></polygon><polygon fill="#3b564b" points="41.2 53.1 42 50.7 40 49.3 40 44.4 42 43.1 42.1 43.6 47.1 65" class="color3b4c56 svgShape"></polygon><polygon fill="#3b564b" points="36.7 65 35.9 55.5 38 65" class="color3b4c56 svgShape"></polygon><polygon fill="#3b564b" points="59.3 65 60.1 55.5 58.1 65" class="color3b4c56 svgShape"></polygon><path fill="#9fd5be" d="M55.8,30.2c0-5.8-3.9-6.8-8.7-6.9v17.6C52,40.7,55.8,36,55.8,30.2z" class="colord5b79f svgShape"></path><path fill="#466a5b" d="M54.3,23.4l0.4,8.5c0,0.3,0.4,0.3,0.5,0l0.8-3.2L54.3,23.4z" class="color465c6a svgShape"></path></svg>