<svg xmlns="http://www.w3.org/2000/svg" viewBox="0 0 64 64" id="employment"><path fill="#292f64" d="M46.49 41.54a18.105 18.105 0 0 0 3.63-12.1c-.04-.63-.11-1.25-.22-1.87-.6-3.6-2.28-7.04-5.06-9.81-.23-.23-.47-.46-.71-.67-.51-.45-1.02-.86-1.55-1.25-6.3-4.52-14.87-4.52-21.17 0-.53.38-1.05.81-1.55 1.25-.23.22-.47.43-.7.66a18.067 18.067 0 0 0-5.07 9.81c-.1.62-.18 1.25-.22 1.87-.32 5.04 1.44 10.18 5.28 14.01 3.54 3.56 8.2 5.33 12.85 5.33 3.86 0 7.71-1.23 10.94-3.67l12.12 14.23a4.02 4.02 0 0 0 5.9.23c1.65-1.65 1.54-4.37-.24-5.89L46.49 41.54zm-4.16-.6c-5.69 5.69-14.96 5.69-20.66 0-5.69-5.7-5.69-14.97 0-20.66C24.51 17.43 28.25 16 32 16a14.6 14.6 0 0 1 10.33 4.27c5.7 5.7 5.7 14.97 0 20.67z"></path><path fill="#292f64" d="m35.16 29.01-.18-.02-2.39 3.41c-.12.18-.35.28-.59.28s-.46-.11-.58-.28l-2.39-3.41-.18.02c-3.75.45-6.58 3.67-6.58 7.47v3.28h2.25l-.18-3.35c-.02-.39.29-.74.76-.77.34 0 .65.31.67.69l.19 3.43h12.08l.19-3.43a.73.73 0 0 1 .75-.68h.01c.39.02.69.36.67.76l-.18 3.35h2.25v-3.28c-.01-3.79-2.83-7-6.57-7.47zM32 28.26c2.49 0 4.51-2.03 4.51-4.51s-2.02-4.51-4.51-4.51-4.51 2.03-4.51 4.51 2.02 4.51 4.51 4.51zM18.95 16.07l.31-.28-.36-.21a8.997 8.997 0 0 0-3.45-1.13l-.18-.02-2.89 4.15c-.13.17-.35.28-.59.28-.25 0-.46-.1-.58-.28L8.3 14.42l-.2.03c-4.62.5-8.1 4.41-8.1 9.09v4.06h2.97l-.22-4.15c-.02-.39.28-.73.75-.75.35 0 .66.31.68.68l.23 4.23h8.29l.04-.26c.67-4.01 2.55-7.65 5.45-10.55.25-.26.5-.49.76-.73zm-7.18-2.36c2.88 0 5.22-2.34 5.22-5.22s-2.34-5.22-5.22-5.22-5.22 2.34-5.22 5.22c-.01 2.88 2.34 5.22 5.22 5.22zm44.12.74-.18-.02-2.9 4.16a.69.69 0 0 1-.58.3c-.23 0-.45-.12-.59-.31l-2.91-4.16-.18.02c-1.21.14-2.37.51-3.45 1.12l-.37.21.32.29c.26.23.51.47.76.72 2.89 2.89 4.77 6.53 5.43 10.55l.04.26h8.29l.24-4.23a.72.72 0 0 1 .74-.67h.01c.39.02.69.36.67.75l-.22 4.15H64v-4.06c0-4.65-3.49-8.56-8.11-9.08zm-3.67-.74c2.88 0 5.22-2.34 5.22-5.22s-2.34-5.22-5.22-5.22C49.34 3.26 47 5.61 47 8.49s2.34 5.22 5.22 5.22z"></path></svg>