<svg xmlns="http://www.w3.org/2000/svg" enable-background="new 0 0 1080 1080" viewBox="0 0 1080 1080" id="customer-service"><path d="M811.8,543.6h-22.4v-29.5C802,507,813,497.6,822,486.4c0,0,0,0,0.1-0.1c19.7-8.4,36.4-23.1,47-42h13.4
		c12.9,0,23.3-10.4,23.3-23.3v-53.3c0-7.4-3.5-13.9-8.8-18.1v-45.2c0-90.6-73.6-164.2-164.2-164.2c-90.5,0-164.3,73.6-164.3,164.2
		v44.4c-6,4.2-9.9,11.1-9.9,19V421c0,12.9,10.4,23.3,23.3,23.3h38.6c5.3,19.1,15.4,36.6,29.7,51c9.2,9.4,19.9,16.9,31.4,22.5v25.9
		h-17.8c-44.2,0-83.2,23.1-105.4,57.9H195.7c-15,0-29.4,6.5-39.2,17.9c-10,11.4-14.5,26.4-12.5,41.4l31.2,233.9
		c3.4,25.9,25.8,45.4,51.7,45.4h324.6h72.4h222.5H924c7,0,12.5-5.6,12.5-12.5v-70.1v-189C936.5,599.6,880.5,543.6,811.8,543.6z
		 M911.5,915h-52.6v-45.1h52.6V915z M694.4,619.4c-9.9-11.4-24.3-17.9-39.3-17.9h-65.4c18.4-20.2,44.8-32.9,74.1-32.9h23.5
		c8.7,17.7,27,29.9,48.1,29.9h1.1V915h-68.2c3.8-6.1,6.2-13,7.3-20.4l31.2-233.9C708.9,645.7,704.4,630.7,694.4,619.4z M651.5,455.2
		c-6.4-12.2-9.9-25.7-10.1-40c-0.1-0.6-0.1-1.4-0.1-2v-23v-24.6c22,4.8,52.2,3.5,84.1-4c26.9-6.2,50.9-16,68.4-27.5
		c6.8,10.4,17.4,18,29.4,21.1v35v23c0,0.6,0,1.4-0.1,2c-0.1,12.5-3,24.1-7.7,34.9v0.1c-2.4,5.4-5.2,10.4-8.6,15.1v0.1
		c-6,2-12.5,3.3-19,3.5c-1.1,0.1-2.4,0.1-3.5,0.1h-1.8h-16.2c-0.5-2.2-1.4-4.4-2.4-6.4c-4.5-8.1-13.1-13.6-22.9-13.6
		c-9.9,0-18.5,5.5-23,13.6c-2,3.8-3.1,8-3.1,12.5c0,1.1,0.1,2.3,0.3,3.3c0.4,3.3,1.4,6.4,3,9.2c4.5,8,13,13.5,22.9,13.5
		c6.9,0,13.1-2.7,17.7-7.1h5.7h9.4c-3,1.6-6.1,3-9.4,4.1c-10,3.9-20.7,6-32.1,6c-8.8,0-17.4-1.2-25.6-3.6c-4.3-1.2-8.5-2.8-12.5-4.8
		c-4.3-1.9-8.5-4.3-12.5-7c-4.9-3.1-9.5-7-13.8-11.3c-6.6-6.6-12.1-14.1-16.4-22.2V455.2z M706.7,526.4c8.2,1.9,16.9,2.9,25.6,2.9
		c11.1,0,21.9-1.6,32.1-4.6v19v0.9c0,4.1-0.9,8.1-2.4,11.6c-2.4,5.1-6,9.5-10.6,12.5c-4.2,2.9-9.4,4.6-14.7,4.9h-1.1
		c-5.9,0-11.4-1.8-15.9-4.9c-4.6-3-8.4-7.4-10.6-12.5c-1.5-3.5-2.4-7.5-2.4-11.6v-0.9V526.4z M593.5,304.2
		c0-76.9,62.5-139.2,139.3-139.2c76.9,0,139.2,62.4,139.2,139.2v40.1h-2.4c0.1-1.5,0.1-3.1,0.1-4.7c0-77.1-62.8-139.9-139.9-139.9
		c-66.7,0-122.6,47-136.4,109.5V304.2z M409.9,812.9c-20.9,0-37.6-16.9-37.6-37.6c0-20.7,16.8-37.5,37.6-37.5
		c20.6,0,37.5,16.8,37.5,37.5C447.4,796,430.5,812.9,409.9,812.9z"></path><path d="M770.3 415.2c2.4 1.1 4.9 1.8 7.6 1.8s5.4-.6 7.6-1.8c6.4-2.9 10.8-9.2 10.8-16.6 0-3-.8-5.9-2.1-8.4-2.9-6-9.1-10-16.3-10s-13.4 4-16.4 10c-1.4 2.5-2.1 5.4-2.1 8.4C759.4 406 763.9 412.5 770.3 415.2zM678.9 415.2c2.2 1.1 4.9 1.8 7.6 1.8s5.4-.6 7.8-1.8c6.4-2.9 10.7-9.2 10.7-16.6 0-3-.8-5.9-2.1-8.4-2.9-6-9.1-10-16.4-10-7.1 0-13.3 4-16.2 10-1.3 2.5-2 5.4-2 8.4C668.3 406 672.7 412.4 678.9 415.2zM318.2 488.4c3.6 0 7.3-.1 10.8-.4 16 17.3 38.5 30.9 66.6 40.6 1.4.4 2.7.6 4.1.6 3.1 0 6.2-1.1 8.6-3.4 3.4-3.3 4.6-8.1 3.4-12.6-1.6-5.6-3.5-11.3-5.2-16.9-3-9-5.7-17.7-7.9-26.4 50.8-24.9 81.9-70.5 81.9-121.4 0-77-72.8-139.6-162.2-139.6C228.8 209 156 271.6 156 348.6 156 425.6 228.8 488.4 318.2 488.4zM318.2 234c75.6 0 137.2 51.4 137.2 114.6 0 43.6-29.1 83-76 102.5-5.4 2.2-8.4 7.9-7.5 13.6 1.9 10.4 4.6 20.4 7.8 30-15-7.6-26.9-16.9-35.8-27.6-2.4-2.9-6-4.5-9.6-4.5h-1.1c-4.9.5-9.9.7-15 .7-75.6 0-137.1-51.5-137.1-114.8C181 285.4 242.5 234 318.2 234z"></path><path d="M244.7 366.4c11.9 0 21.5-9.7 21.5-21.5 0-11.9-9.7-21.6-21.5-21.6-12 0-21.6 9.8-21.6 21.6C223.1 356.7 232.7 366.4 244.7 366.4zM318.3 366.4c11.9 0 21.5-9.7 21.5-21.5 0-11.9-9.7-21.6-21.5-21.6-12 0-21.6 9.8-21.6 21.6C296.6 356.7 306.3 366.4 318.3 366.4zM391.8 366.4c11.9 0 21.5-9.7 21.5-21.5 0-11.9-9.7-21.6-21.5-21.6-12 0-21.6 9.8-21.6 21.6C370.2 356.7 379.8 366.4 391.8 366.4z"></path></svg>