<svg xmlns="http://www.w3.org/2000/svg" enable-background="new 0 0 512 512" viewBox="0 0 512 512" id="business-report"><path d="M422.052,56.069h-75.026V36.034c0-4.418-3.582-8-8-8h-41.558C290.783,11.252,274.537,0,256,0s-34.784,11.252-41.469,28.034
	h-41.557c-4.418,0-8,3.582-8,8v20.035H89.948c-16.302,0-29.565,13.263-29.565,29.564v396.801c0,16.303,13.263,29.565,29.565,29.565
	h332.104c16.302,0,29.565-13.263,29.565-29.565V85.634C451.617,69.332,438.354,56.069,422.052,56.069z M180.974,44.034h39.388
	c3.696,0,6.911-2.531,7.777-6.124C231.251,25.01,242.708,16,256,16c13.292,0,24.749,9.01,27.86,21.91
	c0.867,3.593,4.081,6.124,7.777,6.124h39.389v40.07H180.974V44.034z M435.617,482.435c0,7.48-6.085,13.565-13.565,13.565H89.948
	c-7.48,0-13.565-6.085-13.565-13.565V85.634c0-7.479,6.085-13.564,13.565-13.564h75.026v20.035c0,4.418,3.582,8,8,8h166.052
	c4.418,0,8-3.582,8-8V72.069h75.026c7.48,0,13.565,6.085,13.565,13.564V482.435z M396.367,148.255h-56.009c-4.418,0-8,3.582-8,8
	v20.004h-40.354v-20.004c0-4.418-3.582-8-8-8h-56.008c-4.418,0-8,3.582-8,8v20.004h-40.355v-20.004c0-4.418-3.582-8-8-8h-56.008
	c-4.418,0-8,3.582-8,8v56.009c0,4.418,3.582,8,8,8h56.008c4.418,0,8-3.582,8-8v-20.005h40.355v20.005c0,4.418,3.582,8,8,8h56.008
	c4.418,0,8-3.582,8-8v-20.005h40.354v20.005c0,4.418,3.582,8,8,8h56.009c4.418,0,8-3.582,8-8v-56.009
	C404.367,151.837,400.786,148.255,396.367,148.255z M163.641,204.264h-40.008v-40.009h40.008V204.264z M276.004,204.264h-40.008
	v-40.009h40.008V204.264z M388.367,204.264h-40.009v-40.009h40.009V204.264z M325.474,290.541l28.029-29.145l-7.497,0.885
	c-4.393,0.507-8.365-2.62-8.882-7.008c-0.518-4.388,2.62-8.364,7.007-8.883l29.692-3.503c2.387-0.274,4.765,0.522,6.491,2.188
	s2.615,4.018,2.42,6.408l-2.431,29.8c-0.341,4.182-3.841,7.35-7.965,7.35c-0.218,0-0.438-0.009-0.659-0.026
	c-4.404-0.359-7.682-4.221-7.323-8.624l0.605-7.419l-32.012,33.286c-2.416,2.513-6.18,3.171-9.305,1.63l-38.711-19.095
	l-39.471,34.378c-1.516,1.32-3.388,1.968-5.251,1.968c-2.233,0-4.454-0.93-6.036-2.746c-2.902-3.331-2.553-8.385,0.778-11.286
	l43.488-37.877c2.433-2.119,5.9-2.57,8.793-1.143L325.474,290.541z M290.973,340.931h-28.38c-4.418,0-8,3.582-8,8v102.327
	c0,4.418,3.582,8,8,8h28.38c4.418,0,8-3.582,8-8V348.931C298.973,344.513,295.391,340.931,290.973,340.931z M282.973,443.258h-12.38
	v-86.327h12.38V443.258z M396.367,303.703h-28.38c-4.418,0-8,3.582-8,8v139.555c0,4.418,3.582,8,8,8h28.38c4.418,0,8-3.582,8-8
	V311.703C404.367,307.285,400.786,303.703,396.367,303.703z M388.367,443.258h-12.38V319.703h12.38V443.258z M343.67,360.286h-28.38
	c-4.418,0-8,3.582-8,8v82.972c0,4.418,3.582,8,8,8h28.38c4.418,0,8-3.582,8-8v-82.972
	C351.67,363.868,348.089,360.286,343.67,360.286z M335.67,443.258h-12.38v-66.972h12.38V443.258z M238.276,388.813h-28.38
	c-4.418,0-8,3.582-8,8v54.445c0,4.418,3.582,8,8,8h28.38c4.418,0,8-3.582,8-8v-54.445
	C246.276,392.395,242.694,388.813,238.276,388.813z M230.276,443.258h-12.38v-38.445h12.38V443.258z M165.633,368.613
	c31.981,0,58-26.019,58-57.999c0-31.981-26.019-58-58-58s-58,26.019-58,58C107.633,342.595,133.652,368.613,165.633,368.613z
	 M193.409,342.079l-13.79-23.459l27.238,0.012C205.059,327.889,200.214,336.065,193.409,342.079z M206.863,302.632l-33.23-0.014
	v-33.23C190.392,272.634,203.624,285.87,206.863,302.632z M157.633,269.388v41.226c0,1.426,0.381,2.825,1.104,4.054l20.891,35.539
	c-4.38,1.553-9.089,2.406-13.994,2.406c-23.159,0-42-18.841-42-41.999C123.633,290.191,138.288,273.135,157.633,269.388z
	 M174.112,421.727c0,4.418-3.582,8-8,8h-50.479c-4.418,0-8-3.582-8-8s3.582-8,8-8h50.479
	C170.531,413.727,174.112,417.309,174.112,421.727z M174.112,451.258c0,4.418-3.582,8-8,8h-50.479c-4.418,0-8-3.582-8-8s3.582-8,8-8
	h50.479C170.531,443.258,174.112,446.84,174.112,451.258z M174.112,392.195c0,4.418-3.582,8-8,8h-50.479c-4.418,0-8-3.582-8-8
	s3.582-8,8-8h50.479C170.531,384.195,174.112,387.777,174.112,392.195z"></path></svg>