<svg xmlns="http://www.w3.org/2000/svg" enable-background="new 0 0 64 64" viewBox="0 0 64 64" id="cloud-networking"><polygon fill="#231f20" points="42 32.9 42 32.9 42 30.9"></polygon><polygon fill="#231f20" points="42 32.9 42 32.9 42 30.9"></polygon><path fill="#231f20" d="M57.1,42.2H45.8v-1.8h10.7c1.7-1.5,2.7-3.8,2.7-6.1c0-5.4-5.2-9.7-10.9-7.8l-1.9,0.7l0.8-1.8
				c0.4-1,0.7-2,0.8-3.2C48.4,16,43.7,10.5,37.6,10c-4.9-0.4-9.7,2.5-11.4,7.2l-0.5,1.3l-1.1-0.9c-1.4-1.2-3-1.8-4.7-1.8
				c-4,0-7.2,3.2-7.2,7.2c0,0.8,0.1,1.6,0.4,2.3l0.6,1.6l-1.7-0.5c-0.7-0.2-1.4-0.3-2-0.3c-4,0-7.2,3.2-7.2,7.2s3.2,7.2,7.2,7.2h6.4
				v1.8H10c-4.9,0-9-4.1-9-9c0-5.3,4.6-9.6,10-9c-0.1-0.5-0.1-1-0.1-1.5c0-4.9,4.1-9,9-9c1.8,0,3.6,0.6,5,1.6
				c2.3-4.7,7.5-7.8,12.9-7.3c7.2,0.7,12.5,7,11.9,14.1c-0.1,0.7-0.2,1.4-0.4,2c0.5-0.1,1.1-0.1,1.5-0.1c5.6,0,10.2,4.6,10.2,10.2
				c0,3-1.4,5.9-3.7,7.8L57.1,42.2z"></path><rect width="11" height="1.8" x="45.8" y="40.3" fill="#231f20"></rect><rect width="6.4" height="1.8" x="10" y="40.3" fill="#231f20"></rect><path fill="#231f20" d="M28.5 55.1L27.4 52c-.5-.1-1-.3-1.4-.5l-3 1.6-4.8-4.6 1.5-2.9c-.2-.4-.5-.9-.7-1.4l-3.3-1-.4-6.5 3.1-1.1c.1-.5.3-1 .5-1.5l-1.6-3 4.6-4.8 2.9 1.5c.4-.2.9-.5 1.4-.7l1-3.3 6.6-.2 1.1 3.1c.5.1 1 .3 1.5.5l3-1.7 4.8 4.6-1.4 2.9c.2.4.5.9.7 1.4l3.3 1 .2 6.6-.7.3L43.6 43c-.1.5-.3 1-.5 1.5l1.6 3-4.6 4.8-2.9-1.5c-.5.3-.9.5-1.4.7l-1 3.3L28.5 55.1zM25.9 49.4l.5.2c.7.3 1.4.6 2 .7l.5.1 1 2.7 3.9-.1.8-2.9.5-.2c.7-.2 1.3-.6 1.9-.9l.4-.3 2.6 1.3 2.6-2.8-1.5-2.6.2-.4c.3-.7.6-1.4.7-2l.1-.5 2.7-1-.1-3.9L41.8 36l-.2-.5c-.3-.7-.6-1.4-.9-1.9l-.3-.4 1.3-2.6-2.9-2.7-2.6 1.5-.4-.2c-.7-.3-1.4-.6-2-.7l-.5-.1-1-2.7-3.9.1-.8 2.9-.5.2c-.7.3-1.4.6-1.9 1l-.5.3-2.6-1.3-2.6 2.8 1.5 2.6-.2.5c-.3.7-.6 1.4-.7 2L20 37.2l-2.7 1 .1 3.9 2.9.8.2.5c.3.7.6 1.4 1 1.9l.3.5-1.4 2.5 2.8 2.6L25.9 49.4zM23.1 41.5c-.2-.7-.3-1.4-.3-2 0-4.6 3.7-8.2 8.2-8.2s8.2 3.7 8.2 8.2c0 .7-.1 1.4-.3 2L37.1 41c.1-.6.2-1.1.2-1.6 0-3.5-2.8-6.3-6.3-6.3s-6.3 2.8-6.3 6.3c0 .6.1 1.1.2 1.6L23.1 41.5zM44.7 22.2c-.5 0-1-.4-1-1 0-4.4-4.2-7.8-9.2-7.8-.5 0-1-.4-1-1 0-.5.4-1 1-1 6.1 0 11 4.4 11 9.7C45.6 21.7 45.2 22.2 44.7 22.2zM16.3 23.2c-.5 0-1-.4-1-1 0-2.8 2.6-5.1 5.8-5.1.5 0 1 .4 1 1 0 .5-.4 1-1 1-2.2 0-4 1.5-4 3.3C17.3 22.8 16.8 23.2 16.3 23.2zM62 56.1h-14v-6.3c0-.5.4-1 1-1s1 .4 1 1v4.5h12c.5 0 1 .4 1 1C63 55.8 62.6 56.1 62 56.1z"></path><polygon fill="#231f20" points="49 46.9 50.7 51 49 50 47.4 51"></polygon><path fill="#231f20" d="M15.9,56.1H2c-0.5,0-1-0.4-1-1c0-0.6,0.4-1,1-1h12.1v-4.5c0-0.5,0.4-1,1-1s1,0.4,1,1L15.9,56.1L15.9,56.1z
						"></path><polygon fill="#231f20" points="14.9 46.9 16.6 51 14.9 50 13.3 51"></polygon><g><path fill="#231f20" d="M31,47.6c-3.7,0-7-2.5-7.9-6.1c-0.1-0.5,0.2-1,0.7-1.2c0.5-0.1,1,0.2,1.2,0.7c0.8,2.8,3.2,4.7,6.1,4.7
			s5.4-1.9,6.1-4.7c0.1-0.5,0.7-0.8,1.2-0.7s0.8,0.7,0.7,1.2C38,45.1,34.7,47.6,31,47.6z"></path></g></svg>