<svg xmlns="http://www.w3.org/2000/svg" viewBox="0 0 64 64" id="BinaryCode"><path fill="#2c2a2a" d="M3.32 13.81c0 .08 0 .14-.01.2-.01.05-.02.1-.04.13s-.03.05-.05.07c-.02.01-.04.02-.07.02H.18c-.02 0-.04-.01-.06-.02-.02-.01-.04-.04-.05-.07-.02-.04-.04-.08-.04-.14-.01-.05-.01-.12-.01-.2 0-.08 0-.15.01-.2.01-.05.02-.1.03-.13.02-.03.03-.06.05-.07.02-.02.04-.02.07-.02h1V9.87l-.87.48c-.06.03-.12.05-.16.06-.04.01-.07 0-.1-.03a.225.225 0 0 1-.05-.12V9.85c0-.04.01-.08.02-.11s.03-.06.05-.07a.27.27 0 0 1 .08-.07l1.16-.75c.01-.01.03-.02.05-.03.02-.01.05-.01.08-.02.03 0 .08-.01.13-.01h.21c.11 0 .19 0 .26.01.07 0 .11.01.15.02.03.01.06.02.07.04 0 .02.01.04.01.06v4.45h.88c.03 0 .05.01.07.02.02.02.04.04.05.07.02.03.03.08.03.13.01.07.02.14.02.22zm4.48-2.3c0 .43-.03.82-.1 1.17s-.18.64-.34.89c-.16.24-.36.43-.61.56-.25.13-.56.2-.92.2-.37 0-.67-.06-.92-.19-.25-.14-.44-.32-.58-.56-.14-.24-.24-.53-.3-.87s-.09-.73-.09-1.16c0-.43.04-.82.11-1.16.07-.35.18-.64.34-.89.16-.25.36-.44.61-.57.25-.13.56-.2.92-.2.37 0 .68.06.92.19s.44.31.58.55c.14.24.24.53.3.87.05.35.08.73.08 1.17zm-1.11.05c0-.26-.01-.48-.02-.68-.01-.2-.04-.37-.06-.51A2.36 2.36 0 0 0 6.5 10a.72.72 0 0 0-.16-.24.571.571 0 0 0-.21-.13c-.07-.01-.16-.03-.25-.03-.16 0-.3.04-.41.12-.11.08-.19.2-.25.36-.06.16-.11.36-.13.59-.03.24-.04.51-.04.82 0 .38.02.7.05.95.03.25.08.45.14.6.07.15.15.25.25.31s.23.09.37.09c.11 0 .2-.02.29-.05.08-.03.16-.09.22-.16s.11-.16.16-.26c.04-.11.08-.23.1-.37.03-.14.04-.3.05-.47.01-.16.01-.36.01-.57zm5.43-.05c0 .43-.03.82-.1 1.17s-.18.64-.34.89c-.16.24-.36.43-.61.56-.25.13-.56.2-.92.2-.37 0-.67-.06-.92-.19-.25-.14-.44-.32-.58-.56a2.62 2.62 0 0 1-.3-.87 6.75 6.75 0 0 1-.09-1.16c0-.43.04-.82.11-1.16.07-.35.18-.64.34-.89.16-.24.36-.43.61-.56.25-.13.56-.2.92-.2.37 0 .68.06.92.19s.44.31.58.55c.14.24.24.53.3.87.05.34.08.72.08 1.16zm-1.1.05c0-.26-.01-.48-.02-.68-.01-.2-.04-.37-.06-.51a2.36 2.36 0 0 0-.11-.37c-.04-.1-.1-.18-.16-.24s-.13-.1-.21-.13c-.08-.01-.17-.03-.26-.03-.16 0-.3.04-.41.12-.1.08-.19.2-.25.36-.06.16-.11.36-.13.59-.02.24-.04.51-.04.82 0 .38.02.7.05.95.03.25.08.45.14.6.07.15.15.25.25.31s.23.09.37.09c.11 0 .2-.02.29-.05.08-.03.16-.09.22-.16s.11-.16.16-.26c.04-.11.08-.23.1-.37.03-.14.04-.3.05-.47.01-.16.02-.36.02-.57zm5.27 2.25c0 .08 0 .14-.01.2-.01.05-.02.1-.04.13s-.03.05-.05.07c-.02.01-.04.02-.07.02h-2.97c-.02 0-.04-.01-.06-.02-.02-.01-.04-.04-.05-.07-.02-.04-.04-.08-.04-.14-.01-.05-.01-.12-.01-.2 0-.08 0-.15.01-.2.01-.05.02-.1.03-.13.02-.03.03-.06.05-.07.02-.02.04-.02.07-.02h1V9.87l-.87.48c-.06.03-.12.05-.16.06-.04.01-.07 0-.1-.03a.225.225 0 0 1-.05-.12c-.01-.06-.01-.14-.01-.25v-.16c0-.04.01-.08.02-.11s.03-.06.05-.07c.02-.02.05-.04.08-.06l1.16-.75c.01-.01.03-.02.05-.03.02-.01.05-.01.08-.02.03 0 .08-.01.13-.01h.21c.11 0 .19 0 .26.01.07 0 .11.01.15.02.03.01.06.02.07.04.01.02.02.04.02.06v4.45h.88c.02 0 .05.01.07.02.02.02.04.04.05.07.02.03.03.08.03.13.01.06.02.13.02.21zm4.32 0c0 .08 0 .14-.01.2-.01.05-.02.1-.04.13s-.03.05-.05.07c-.02.01-.04.02-.07.02h-2.97c-.02 0-.04-.01-.06-.02-.02-.01-.04-.04-.05-.07a.332.332 0 0 1-.04-.13c-.01-.05-.01-.12-.01-.2 0-.08 0-.15.01-.2.01-.05.02-.1.03-.13.02-.03.03-.06.05-.07.02-.02.04-.02.07-.02h1V9.87l-.87.48c-.06.03-.12.05-.16.06-.04.01-.07 0-.1-.03a.225.225 0 0 1-.05-.12c-.01-.06-.01-.14-.01-.25v-.16c0-.04.01-.08.02-.11s.03-.06.05-.07c.02-.02.05-.04.08-.06l1.16-.75c.01-.01.03-.02.05-.03.02-.01.05-.01.08-.02.03 0 .08-.01.13-.01h.21c.11 0 .19 0 .26.01.07 0 .11.01.15.02.03.01.06.02.07.04.01.02.02.04.02.06v4.45h.88c.02 0 .05.01.07.02.02.02.04.04.05.07.02.03.03.08.03.13.02.06.02.13.02.21zm4.32 0c0 .08 0 .14-.01.2-.01.05-.02.1-.04.13s-.03.05-.05.07c-.02.01-.04.02-.07.02h-2.97c-.02 0-.04-.01-.06-.02-.02-.01-.04-.04-.05-.07a.332.332 0 0 1-.04-.13c-.01-.05-.01-.12-.01-.2 0-.08 0-.15.01-.2.01-.05.02-.1.03-.13.02-.03.03-.06.05-.07.02-.02.04-.02.07-.02h1V9.87l-.87.48c-.06.03-.12.05-.16.06-.04.01-.07 0-.1-.03a.225.225 0 0 1-.05-.12c-.01-.06-.01-.14-.01-.25v-.16c0-.04.01-.08.02-.11s.03-.06.05-.07c.02-.02.05-.04.08-.06l1.16-.75c.01-.01.03-.02.05-.03.02-.01.05-.01.08-.02.03 0 .08-.01.13-.01h.21c.11 0 .19 0 .26.01.07 0 .11.01.15.02.03.01.06.02.07.04.01.02.02.04.02.06v4.45h.88c.02 0 .05.01.07.02.02.02.04.04.05.07.02.03.03.08.03.13.02.06.02.13.02.21zm4.48-2.3c0 .43-.03.82-.1 1.17s-.18.64-.34.89c-.16.24-.36.43-.61.56-.25.13-.56.2-.92.2-.37 0-.67-.06-.92-.19-.24-.13-.43-.31-.57-.55a2.62 2.62 0 0 1-.3-.87 6.75 6.75 0 0 1-.09-1.16c0-.43.04-.82.11-1.16.07-.35.18-.64.34-.89.16-.24.36-.43.61-.56.25-.13.56-.2.92-.2.37 0 .68.06.92.19s.44.31.58.55c.14.24.24.53.3.87.05.33.07.71.07 1.15zm-1.1.05c0-.26-.01-.48-.02-.68-.01-.2-.04-.37-.06-.51a2.36 2.36 0 0 0-.11-.37.72.72 0 0 0-.16-.24.571.571 0 0 0-.21-.13c-.08-.02-.16-.04-.26-.04-.16 0-.3.04-.41.12-.11.08-.19.2-.25.36-.06.16-.11.36-.13.59-.03.24-.04.51-.04.82 0 .38.02.7.05.95.03.25.08.45.14.6.07.15.15.25.25.31s.23.09.37.09c.11 0 .2-.02.29-.05.08-.03.16-.09.22-.16s.11-.16.16-.26c.04-.11.08-.23.1-.37.03-.14.04-.3.05-.47.02-.15.02-.35.02-.56zm5.27 2.25c0 .08 0 .14-.01.2-.01.05-.02.1-.04.13s-.03.05-.05.07c-.02.01-.04.02-.07.02h-2.97c-.02 0-.04-.01-.06-.02-.02-.01-.04-.04-.05-.07a.332.332 0 0 1-.04-.13c-.01-.05-.01-.12-.01-.2 0-.08 0-.15.01-.2.01-.05.02-.1.03-.13.02-.03.03-.06.05-.07.02-.02.04-.02.07-.02h1V9.87l-.87.48c-.06.03-.12.05-.16.06-.04.01-.07 0-.1-.03a.225.225 0 0 1-.05-.12c-.01-.06-.01-.14-.01-.25v-.16c0-.04.01-.08.02-.11s.03-.06.05-.07c.02-.02.05-.04.08-.06l1.16-.75c.01-.01.03-.02.05-.03.02-.01.05-.01.08-.02.03 0 .08-.01.13-.01h.21c.11 0 .19 0 .26.01.07 0 .11.01.15.02.03.01.06.02.07.04.01.02.02.04.02.06v4.45h.88c.03 0 .05.01.07.02.02.02.04.04.05.07.02.03.03.08.03.13.02.06.02.13.02.21zm4.48-2.3c0 .43-.03.82-.1 1.17s-.18.64-.34.89c-.16.24-.36.43-.61.56-.25.13-.56.2-.92.2-.37 0-.67-.06-.92-.19-.24-.13-.43-.31-.57-.55-.14-.24-.24-.53-.3-.87s-.09-.73-.09-1.16c0-.43.04-.82.11-1.16.07-.35.18-.64.34-.89.16-.24.36-.43.61-.56.25-.13.56-.2.92-.2.37 0 .68.06.92.19s.44.31.58.55c.14.24.24.53.3.87.04.33.07.71.07 1.15zm-1.1.05c0-.26-.01-.48-.02-.68s-.04-.37-.06-.51a2.36 2.36 0 0 0-.11-.37c-.04-.1-.1-.18-.16-.24s-.13-.1-.21-.13c-.08-.02-.16-.04-.26-.04-.16 0-.3.04-.41.12-.11.08-.19.2-.25.36-.06.16-.11.36-.13.59-.02.24-.04.51-.04.82 0 .38.02.7.05.95.03.25.08.45.14.6.07.15.15.25.25.31s.23.09.37.09c.11 0 .2-.02.29-.05.08-.03.16-.09.22-.16s.11-.16.16-.26c.04-.11.08-.23.1-.37.03-.14.04-.3.05-.47.01-.15.02-.35.02-.56zm5.27 2.25c0 .08 0 .14-.01.2-.01.05-.02.1-.04.13s-.03.05-.05.07c-.02.01-.04.02-.07.02h-2.97c-.02 0-.04-.01-.06-.02-.02-.01-.04-.04-.05-.07a.332.332 0 0 1-.04-.13c-.01-.05-.01-.12-.01-.2 0-.08 0-.15.01-.2.01-.05.02-.1.03-.13.02-.03.03-.06.05-.07.02-.02.04-.02.07-.02h1V9.87l-.87.48c-.06.03-.12.05-.16.06-.04.01-.07 0-.1-.03a.225.225 0 0 1-.05-.12c-.01-.06-.01-.14-.01-.25v-.16c0-.04.01-.08.02-.11s.03-.06.05-.07a.55.55 0 0 1 .09-.07l1.16-.75c.01-.01.03-.02.05-.03.02-.01.05-.01.08-.02.03 0 .08-.01.13-.01h.21c.11 0 .19 0 .26.01.07 0 .11.01.15.02.03.01.06.02.07.04.01.02.02.04.02.06v4.45h.88c.02 0 .05.01.07.02.02.02.04.04.05.07.02.03.03.08.03.13 0 .07.01.14.01.22zm4.32 0c0 .08 0 .14-.01.2-.01.05-.02.1-.04.13s-.03.05-.05.07c-.02.01-.04.02-.07.02h-2.97c-.02 0-.04-.01-.06-.02-.02-.01-.04-.04-.05-.07a.332.332 0 0 1-.04-.13c-.01-.05-.01-.12-.01-.2 0-.08 0-.15.01-.2.01-.05.02-.1.03-.13.02-.03.03-.06.05-.07.02-.02.04-.02.07-.02h1V9.87l-.87.48c-.06.03-.12.05-.16.06-.04.01-.07 0-.1-.03a.225.225 0 0 1-.05-.12c-.01-.06-.01-.14-.01-.25v-.16c0-.04.01-.08.02-.11s.03-.06.05-.07c.02-.02.05-.04.08-.06l1.16-.75c.01-.01.03-.02.05-.03.02-.01.05-.01.08-.02.03 0 .08-.01.13-.01H45c.11 0 .19 0 .26.01.07 0 .11.01.15.02.03.01.06.02.07.04.02.01.02.03.02.05v4.45h.88c.02 0 .05.01.07.02.02.02.04.04.05.07.02.03.03.08.03.13.02.07.02.14.02.22zm4.32 0c0 .08 0 .14-.01.2-.01.05-.02.1-.04.13s-.03.05-.05.07c-.02.01-.04.02-.07.02h-2.97c-.02 0-.04-.01-.06-.02-.02-.01-.04-.04-.05-.07a.332.332 0 0 1-.04-.13c-.01-.05-.01-.12-.01-.2 0-.08 0-.15.01-.2.01-.05.02-.1.03-.13.02-.03.03-.06.05-.07.02-.02.04-.02.07-.02h1V9.87l-.87.48c-.06.03-.12.05-.16.06-.04.01-.07 0-.1-.03a.225.225 0 0 1-.05-.12c-.01-.06-.01-.14-.01-.25v-.16c0-.04.01-.08.02-.11s.03-.06.05-.07c.02-.02.05-.04.08-.06l1.16-.75c.01-.01.03-.02.05-.03.02-.01.05-.01.08-.02.03 0 .08-.01.13-.01h.21c.11 0 .19 0 .26.01.07 0 .11.01.15.02.03.01.06.02.07.04.01.02.02.04.02.06v4.45h.88c.02 0 .05.01.07.02.02.02.04.04.05.07.02.03.03.08.03.13.02.06.02.13.02.21zm4.48-2.3c0 .43-.03.82-.1 1.17s-.18.64-.34.89c-.16.24-.36.43-.61.56-.25.13-.56.2-.92.2-.37 0-.67-.06-.92-.19-.24-.13-.43-.31-.57-.55a2.62 2.62 0 0 1-.3-.87 6.75 6.75 0 0 1-.09-1.16c0-.43.04-.82.11-1.16.07-.35.18-.64.34-.89.16-.24.36-.43.61-.56.25-.13.56-.2.92-.2.37 0 .68.06.92.19s.44.31.58.55c.14.24.24.53.3.87.05.33.07.71.07 1.15zm-1.1.05c0-.26-.01-.48-.02-.68-.01-.2-.04-.37-.06-.51a2.36 2.36 0 0 0-.11-.37c-.04-.1-.1-.18-.16-.24s-.13-.1-.21-.13c-.08-.02-.16-.04-.26-.04-.16 0-.3.04-.41.12-.11.08-.19.2-.25.36-.06.16-.11.36-.13.59-.02.24-.04.51-.04.82 0 .38.02.7.05.95.03.25.08.45.14.6.07.15.15.25.25.31s.23.09.37.09c.11 0 .2-.02.29-.05.08-.03.16-.09.22-.16s.11-.16.16-.26c.04-.11.08-.23.1-.37.03-.14.04-.3.05-.47.01-.15.02-.35.02-.56zm5.27 2.25c0 .08 0 .14-.01.2-.01.05-.02.1-.04.13s-.03.05-.05.07c-.02.01-.04.02-.07.02h-2.97c-.02 0-.04-.01-.06-.02-.02-.01-.04-.04-.05-.07a.332.332 0 0 1-.04-.13c-.01-.05-.01-.12-.01-.2 0-.08 0-.15.01-.2.01-.05.02-.1.03-.13.02-.03.03-.06.05-.07.02-.02.04-.02.07-.02h1V9.87l-.87.48c-.06.03-.12.05-.16.06-.04.01-.07 0-.1-.03-.02-.02-.04-.06-.05-.12s-.01-.14-.01-.25v-.16c0-.04.01-.08.02-.11s.03-.06.05-.07c.02-.02.05-.04.08-.06l1.16-.75c.01-.01.03-.02.05-.03.02-.01.05-.01.08-.02.03 0 .08-.01.13-.01h.21c.11 0 .19 0 .26.01.07 0 .11.01.15.02.03.01.06.02.07.04.01.02.02.04.02.06v4.45h.88c.03 0 .05.01.07.02.02.02.04.04.05.07.02.03.03.08.03.13.01.06.02.13.02.21zm4.48-2.3c0 .43-.03.82-.1 1.17s-.18.64-.34.89c-.16.24-.36.43-.61.56-.25.13-.56.2-.92.2-.37 0-.67-.06-.92-.19-.24-.13-.43-.31-.57-.55a2.62 2.62 0 0 1-.3-.87 6.75 6.75 0 0 1-.09-1.16c0-.43.04-.82.11-1.16.07-.35.18-.64.34-.89.16-.24.36-.43.61-.56.25-.13.56-.2.92-.2.37 0 .68.06.92.19s.44.31.58.55c.14.24.24.53.3.87.04.33.07.71.07 1.15zm-1.1.05c0-.26-.01-.48-.02-.68-.01-.2-.04-.37-.06-.51a2.36 2.36 0 0 0-.11-.37.72.72 0 0 0-.16-.24.571.571 0 0 0-.21-.13c-.08-.02-.16-.04-.26-.04-.16 0-.3.04-.41.12-.11.08-.19.2-.25.36-.06.16-.11.36-.13.59-.03.24-.04.51-.04.82 0 .38.02.7.05.95.03.25.08.45.14.6.07.15.15.25.25.31s.23.09.37.09c.11 0 .2-.02.29-.05.08-.03.16-.09.22-.16s.11-.16.16-.26c.04-.11.08-.23.1-.37.03-.14.04-.3.05-.47.01-.15.02-.35.02-.56zM3.32 24.04c0 .08 0 .14-.01.2-.01.05-.02.1-.04.13s-.03.05-.05.07c-.02.01-.04.02-.07.02H.18c-.02 0-.04-.01-.06-.02-.02-.01-.04-.04-.05-.07-.02-.03-.03-.08-.04-.13-.01-.05-.01-.12-.01-.2 0-.08 0-.15.01-.2.01-.05.02-.1.03-.13.02-.03.03-.06.05-.07.02-.02.04-.02.07-.02h1v-3.51l-.87.48c-.06.03-.12.05-.16.06-.04.01-.07 0-.1-.03A.225.225 0 0 1 0 20.5V20.09c0-.04.01-.08.02-.11s.03-.06.05-.07c.02-.02.05-.04.08-.06l1.16-.75c.01-.01.03-.02.05-.03.02-.01.05-.01.08-.02.03 0 .08-.01.13-.01h.21c.11 0 .19 0 .26.01.07 0 .11.01.15.02.03.01.06.02.07.04.01.02.02.04.02.06v4.45h.88c.03 0 .05.01.07.02.02.02.04.04.05.07.02.03.03.08.03.13s.01.12.01.2zm4.48-2.3c0 .43-.03.82-.1 1.17s-.18.64-.34.89c-.16.24-.36.43-.61.56-.25.13-.56.2-.92.2-.37 0-.67-.06-.92-.19-.24-.13-.43-.31-.57-.55a2.62 2.62 0 0 1-.3-.87 6.75 6.75 0 0 1-.09-1.16c0-.43.04-.82.11-1.16.07-.35.18-.64.34-.89.15-.25.35-.44.6-.57.25-.13.56-.2.92-.2.37 0 .68.06.92.19s.44.31.58.55c.14.24.24.53.3.87.05.34.08.73.08 1.16zm-1.11.06c0-.26-.01-.48-.02-.68-.01-.2-.04-.37-.06-.51a2.36 2.36 0 0 0-.11-.37.72.72 0 0 0-.16-.24.571.571 0 0 0-.21-.13c-.08-.02-.16-.04-.26-.04-.16 0-.3.04-.41.12-.11.08-.19.2-.25.36-.06.16-.11.36-.13.59-.03.24-.04.51-.04.82 0 .38.02.7.05.95.03.25.08.45.14.6.07.15.15.25.25.31s.23.09.37.09c.11 0 .2-.02.29-.05s.16-.09.22-.16.11-.16.16-.26c.04-.11.08-.23.1-.37.03-.14.04-.3.05-.47.02-.16.02-.35.02-.56zm5.27 2.24c0 .08 0 .14-.01.2-.01.05-.02.1-.04.13s-.03.05-.05.07c-.02.01-.04.02-.07.02H8.82c-.02 0-.04-.01-.06-.02-.02-.01-.04-.04-.05-.07-.02-.03-.03-.08-.04-.13-.01-.05-.01-.12-.01-.2 0-.08 0-.15.01-.2.01-.05.02-.1.03-.13.02-.03.03-.06.05-.07.02-.02.04-.02.07-.02h1v-3.51l-.87.48c-.06.03-.12.05-.16.06-.04.01-.07 0-.1-.03a.225.225 0 0 1-.05-.12c-.01-.06-.01-.14-.01-.25v-.16c0-.04.01-.08.02-.11s.03-.06.05-.07c.02-.02.05-.04.08-.06l1.16-.75c.01-.01.03-.02.05-.03.02-.01.05-.01.08-.02.03 0 .08-.01.13-.01h.21c.11 0 .19 0 .26.01.07 0 .11.01.15.02s.06.02.07.04c.01.02.02.04.02.06v4.45h.88c.02 0 .05.01.07.02.02.02.04.04.05.07.02.03.03.08.03.13.02.05.02.12.02.2zm4.33 0c0 .08 0 .14-.01.2-.01.05-.02.1-.04.13s-.03.05-.05.07c-.02.01-.04.02-.07.02h-2.97c-.02 0-.04-.01-.06-.02-.02-.01-.04-.04-.05-.07a.25.25 0 0 1-.04-.13c-.01-.05-.01-.12-.01-.2 0-.08 0-.15.01-.2.01-.05.02-.1.03-.13.02-.03.03-.06.05-.07.02-.02.04-.02.07-.02h1v-3.51l-.87.48c-.06.03-.12.05-.16.06-.04.01-.07 0-.1-.03a.225.225 0 0 1-.05-.12c-.01-.06-.01-.14-.01-.25v-.16c0-.04.01-.08.02-.11s.03-.06.05-.07c.02-.02.05-.04.08-.06l1.16-.75c.01-.01.03-.02.05-.03.02-.01.05-.01.08-.02.03 0 .08-.01.13-.01h.21c.11 0 .19 0 .26.01.07 0 .11.01.15.02.03.01.06.02.07.04.01.02.02.04.02.06v4.45h.88c.02 0 .05.01.07.02.02.02.04.04.05.07.02.03.03.08.03.13.01.05.02.12.02.2zm4.48-2.3c0 .43-.03.82-.1 1.17s-.18.64-.34.89c-.16.24-.36.43-.61.56-.25.13-.56.2-.92.2-.37 0-.67-.06-.92-.19-.24-.13-.43-.31-.57-.55a2.62 2.62 0 0 1-.3-.87 6.75 6.75 0 0 1-.09-1.16c0-.43.04-.82.11-1.16.07-.35.18-.64.34-.89.16-.24.36-.43.61-.56.25-.13.56-.2.92-.2.37 0 .68.06.92.19s.44.31.58.55c.14.24.24.53.3.87.04.33.07.72.07 1.15zm-1.11.06c0-.26-.01-.48-.02-.68-.01-.2-.04-.37-.06-.51a2.36 2.36 0 0 0-.11-.37.72.72 0 0 0-.16-.24.571.571 0 0 0-.21-.13c-.08-.02-.16-.04-.26-.04-.16 0-.3.04-.41.12-.11.08-.19.2-.25.36-.06.16-.11.36-.13.59s-.04.51-.04.82c0 .38.02.7.05.95.03.25.08.45.14.6.07.15.15.25.25.31s.23.09.37.09c.11 0 .2-.02.29-.05.08-.03.16-.09.22-.16s.11-.16.16-.26c.04-.11.08-.23.1-.37.03-.14.04-.3.05-.47.02-.16.02-.35.02-.56zm5.27 2.24c0 .08 0 .14-.01.2-.01.05-.02.1-.04.13s-.03.05-.05.07c-.02.01-.04.02-.07.02h-2.97c-.02 0-.04-.01-.06-.02-.02-.01-.04-.04-.05-.07-.02-.03-.03-.08-.04-.13-.01-.05-.01-.12-.01-.2 0-.08 0-.15.01-.2.01-.05.02-.1.03-.13.02-.03.03-.06.05-.07.02-.02.04-.02.07-.02h1v-3.51l-.87.48c-.06.03-.12.05-.16.06-.04.01-.07 0-.1-.03a.225.225 0 0 1-.05-.12c-.01-.06-.01-.14-.01-.25v-.16c0-.04.01-.08.02-.11s.03-.06.05-.07c.02-.02.05-.04.08-.06l1.16-.75c.01-.01.03-.02.05-.03.02-.01.05-.01.08-.02.03 0 .08-.01.13-.01h.21c.11 0 .19 0 .26.01.07 0 .11.01.15.02.03.01.06.02.07.04.01.02.02.04.02.06v4.45h.88c.02 0 .05.01.07.02.02.02.04.04.05.07.02.03.03.08.03.13.02.05.02.12.02.2zm4.33 0c0 .08 0 .14-.01.2-.01.05-.02.1-.04.13s-.03.05-.05.07c-.02.01-.04.02-.07.02h-2.97c-.02 0-.04-.01-.06-.02-.02-.01-.04-.04-.05-.07-.02-.03-.03-.08-.04-.13-.01-.05-.01-.12-.01-.2 0-.08 0-.15.01-.2.01-.05.02-.1.03-.13.02-.03.03-.06.05-.07.02-.02.04-.02.07-.02h1v-3.51l-.87.48c-.06.03-.12.05-.16.06-.04.01-.07 0-.1-.03a.225.225 0 0 1-.05-.12c-.01-.06-.01-.14-.01-.25v-.16c0-.04.01-.08.02-.11s.03-.06.05-.07c.02-.02.05-.04.08-.06l1.16-.75c.01-.01.03-.02.05-.03.02-.01.05-.01.08-.02.03 0 .08-.01.13-.01h.21c.11 0 .19 0 .26.01.07 0 .11.01.15.02.03.01.06.02.07.04.01.02.02.04.02.06v4.45h.88c.03 0 .05.01.07.02.02.02.04.04.05.07.02.03.03.08.03.13.01.05.02.12.02.2zm4.48-2.3c0 .43-.03.82-.1 1.17s-.18.64-.34.89c-.16.24-.36.43-.61.56-.25.13-.56.2-.92.2-.37 0-.67-.06-.92-.19-.24-.13-.43-.31-.57-.55a2.62 2.62 0 0 1-.3-.87 6.75 6.75 0 0 1-.09-1.16c0-.43.04-.82.11-1.16.07-.35.18-.64.34-.89.16-.24.36-.43.61-.56.25-.13.56-.2.92-.2.37 0 .68.06.92.19s.44.31.58.55c.14.24.24.53.3.87.04.33.07.72.07 1.15zm-1.11.06c0-.26-.01-.48-.02-.68-.01-.2-.04-.37-.06-.51a2.36 2.36 0 0 0-.11-.37.72.72 0 0 0-.16-.24.571.571 0 0 0-.21-.13c-.08-.02-.16-.04-.26-.04-.16 0-.3.04-.41.12-.11.08-.19.2-.25.36-.06.16-.11.36-.13.59-.03.24-.04.51-.04.82 0 .38.02.7.05.95.03.25.08.45.14.6.07.15.15.25.25.31s.23.09.37.09c.11 0 .2-.02.29-.05.08-.03.16-.09.22-.16s.11-.16.16-.26c.04-.11.08-.23.1-.37.03-.14.04-.3.05-.47.02-.16.02-.35.02-.56zm5.27 2.24c0 .08 0 .14-.01.2-.01.05-.02.1-.04.13s-.03.05-.05.07c-.02.01-.04.02-.07.02h-2.97c-.02 0-.04-.01-.06-.02-.02-.01-.04-.04-.05-.07-.02-.03-.03-.08-.04-.13-.01-.05-.01-.12-.01-.2 0-.08 0-.15.01-.2.01-.05.02-.1.03-.13.02-.03.03-.06.05-.07.02-.02.04-.02.07-.02h1v-3.51l-.87.48c-.06.03-.12.05-.16.06-.04.01-.07 0-.1-.03a.225.225 0 0 1-.05-.12c-.01-.06-.01-.14-.01-.25v-.16c0-.04.01-.08.02-.11s.03-.06.05-.07c.02-.02.05-.04.08-.06l1.16-.75c.01-.01.03-.02.05-.03.02-.01.05-.01.08-.02.03 0 .08-.01.13-.01h.21c.11 0 .19 0 .26.01.07 0 .11.01.15.02.03.01.06.02.07.04.01.02.02.04.02.06v4.45h.88c.03 0 .05.01.07.02.02.02.04.04.05.07.02.03.03.08.03.13.02.05.02.12.02.2zm4.33 0c0 .08 0 .14-.01.2-.01.05-.02.1-.04.13s-.03.05-.05.07c-.02.01-.04.02-.07.02h-2.97c-.02 0-.04-.01-.06-.02-.02-.01-.04-.04-.05-.07-.02-.03-.03-.08-.04-.13-.01-.05-.01-.12-.01-.2 0-.08 0-.15.01-.2.01-.05.02-.1.03-.13.02-.03.03-.06.05-.07.02-.02.04-.02.07-.02h1v-3.51l-.87.48c-.06.03-.12.05-.16.06-.04.01-.07 0-.1-.03a.225.225 0 0 1-.05-.12c-.01-.06-.01-.14-.01-.25v-.16c0-.04.01-.08.02-.11s.03-.06.05-.07c.02-.02.05-.04.08-.06l1.16-.75c.01-.01.03-.02.05-.03.02-.01.05-.01.08-.02.03 0 .08-.01.13-.01h.21c.11 0 .19 0 .26.01.07 0 .11.01.15.02.03.01.06.02.07.04.01.02.02.04.02.06v4.45h.88c.02 0 .05.01.07.02.02.02.04.04.05.07.02.03.03.08.03.13.01.05.02.12.02.2zm4.48-2.3c0 .43-.03.82-.1 1.17s-.18.64-.34.89c-.16.24-.36.43-.61.56-.25.13-.56.2-.92.2-.37 0-.67-.06-.92-.19-.24-.13-.43-.31-.57-.55a2.62 2.62 0 0 1-.3-.87 6.75 6.75 0 0 1-.09-1.16c0-.43.04-.82.11-1.16.07-.35.18-.64.34-.89.16-.24.36-.43.61-.56.25-.13.56-.2.92-.2.37 0 .68.06.92.19s.44.31.58.55c.14.24.24.53.3.87.04.33.07.72.07 1.15zm-1.11.06c0-.26-.01-.48-.02-.68-.01-.2-.04-.37-.06-.51a2.36 2.36 0 0 0-.11-.37.72.72 0 0 0-.16-.24.571.571 0 0 0-.21-.13c-.08-.02-.16-.04-.26-.04-.16 0-.3.04-.41.12-.11.08-.19.2-.25.36-.06.16-.11.36-.13.59s-.04.51-.04.82c0 .38.02.7.05.95.03.25.08.45.14.6.07.15.15.25.25.31s.23.09.37.09c.11 0 .2-.02.29-.05.08-.03.16-.09.22-.16s.11-.16.16-.26c.04-.11.08-.23.1-.37.03-.14.04-.3.05-.47.02-.16.02-.35.02-.56zm5.43-.06c0 .43-.03.82-.1 1.17s-.18.64-.34.89c-.16.24-.36.43-.61.56-.25.13-.56.2-.92.2-.37 0-.67-.06-.92-.19-.24-.13-.43-.31-.57-.55a2.62 2.62 0 0 1-.3-.87 6.75 6.75 0 0 1-.09-1.16c0-.43.04-.82.11-1.16.07-.35.18-.64.34-.89.16-.24.36-.43.61-.56.25-.13.56-.2.92-.2.37 0 .68.06.92.19s.44.31.58.55c.14.24.24.53.3.87.04.33.07.72.07 1.15zm-1.1.06c0-.26-.01-.48-.02-.68-.01-.2-.04-.37-.06-.51s-.07-.27-.11-.37a.72.72 0 0 0-.16-.24.571.571 0 0 0-.21-.13c-.08-.02-.16-.04-.26-.04-.16 0-.3.04-.41.12-.11.08-.19.2-.25.36-.06.16-.11.36-.13.59-.02.24-.04.51-.04.82 0 .38.02.7.05.95s.08.45.14.6c.07.15.15.25.25.31s.23.09.37.09c.11 0 .2-.02.29-.05.08-.03.16-.09.22-.16s.11-.16.16-.26c.04-.11.08-.23.1-.37.03-.14.04-.3.05-.47.01-.16.02-.35.02-.56zm5.27 2.24c0 .08 0 .14-.01.2-.01.05-.02.1-.04.13s-.03.05-.05.07c-.02.01-.04.02-.07.02h-2.97c-.02 0-.04-.01-.06-.02-.02-.01-.04-.04-.05-.07-.02-.03-.03-.08-.04-.13-.01-.05-.01-.12-.01-.2 0-.08 0-.15.01-.2.01-.05.02-.1.03-.13.02-.03.03-.06.05-.07.02-.02.04-.02.07-.02h1v-3.51l-.87.48c-.06.03-.12.05-.16.06-.04.01-.07 0-.1-.03a.225.225 0 0 1-.05-.12c-.01-.06-.01-.14-.01-.25v-.16c0-.04.01-.08.02-.11s.03-.06.05-.07c.02-.02.05-.04.08-.06l1.16-.75c.01-.01.03-.02.05-.03.02-.01.05-.01.08-.02.03 0 .08-.01.13-.01h.21c.11 0 .19 0 .26.01.07 0 .11.01.15.02.03.01.06.02.07.04.01.02.02.04.02.06v4.45h.88c.02 0 .05.01.07.02.02.02.04.04.05.07.02.03.03.08.03.13.01.05.02.12.02.2zm4.48-2.3c0 .43-.03.82-.1 1.17s-.18.64-.34.89c-.16.24-.36.43-.61.56-.25.13-.56.2-.92.2-.37 0-.67-.06-.92-.19-.24-.13-.43-.31-.57-.55a2.62 2.62 0 0 1-.3-.87 6.75 6.75 0 0 1-.09-1.16c0-.43.04-.82.11-1.16.07-.35.18-.64.34-.89.16-.24.36-.43.61-.56.25-.13.56-.2.92-.2.37 0 .68.06.92.19s.44.31.58.55.24.53.3.87c.04.33.07.72.07 1.15zm-1.11.06c0-.26-.01-.48-.02-.68-.01-.2-.04-.37-.06-.51a2.36 2.36 0 0 0-.11-.37.72.72 0 0 0-.16-.24.571.571 0 0 0-.21-.13c-.08-.02-.16-.04-.26-.04-.16 0-.3.04-.41.12-.11.08-.19.2-.25.36-.06.16-.11.36-.13.59-.02.24-.04.51-.04.82 0 .38.02.7.05.95.03.25.08.45.14.6.07.15.15.25.25.31s.23.09.37.09c.11 0 .2-.02.29-.05.08-.03.16-.09.22-.16s.11-.16.16-.26c.04-.11.08-.23.1-.37.03-.14.04-.3.05-.47.02-.16.02-.35.02-.56zm5.27 2.24c0 .08 0 .14-.01.2-.01.05-.02.1-.04.13s-.03.05-.05.07c-.02.01-.04.02-.07.02H60.7c-.02 0-.04-.01-.06-.02-.02-.01-.04-.04-.05-.07s-.03-.08-.04-.13c-.01-.05-.01-.12-.01-.2 0-.08 0-.15.01-.2.01-.05.02-.1.03-.13.02-.03.03-.06.05-.07.02-.02.04-.02.07-.02h1v-3.51l-.87.48c-.06.03-.12.05-.16.06-.04.01-.07 0-.1-.03a.225.225 0 0 1-.05-.12c-.01-.06-.01-.14-.01-.25v-.16c0-.04.01-.08.02-.11s.03-.06.05-.07c.02-.02.05-.04.08-.06l1.16-.75c.01-.01.03-.02.05-.03.02-.01.05-.01.08-.02.03 0 .08-.01.13-.01h.21c.11 0 .19 0 .26.01.07 0 .11.01.15.02.03.01.06.02.07.04.01.02.02.04.02.06v4.45h.88c.03 0 .05.01.07.02.02.02.04.04.05.07.02.03.03.08.03.13.02.05.02.12.02.2zM3.32 34.28c0 .08 0 .14-.01.2-.01.05-.02.1-.04.13s-.03.05-.05.07c-.02.01-.04.02-.07.02H.18c-.02 0-.04-.01-.06-.02s-.04-.04-.05-.07c-.02-.03-.03-.08-.04-.13-.01-.05-.01-.12-.01-.2 0-.08 0-.15.01-.2.01-.05.02-.1.03-.13.02-.03.03-.06.05-.07.02-.02.04-.02.07-.02h1v-3.51l-.87.48c-.06.03-.12.05-.16.06-.04.01-.07 0-.1-.02a.225.225 0 0 1-.05-.12V30.32c0-.04.01-.08.02-.11s.03-.06.05-.07c.02-.02.05-.04.08-.06l1.16-.75c.01-.01.03-.02.05-.03.02-.01.05-.01.08-.02.03 0 .08-.01.13-.01h.21c.11 0 .19 0 .26.01.07 0 .11.01.15.02.03.01.06.02.07.04.01.02.02.04.02.06v4.45h.88c.03 0 .05.01.07.02.02.02.04.04.05.07.02.03.03.08.03.13 0 .06.01.13.01.21zm4.48-2.3c0 .43-.03.82-.1 1.17s-.18.64-.34.89c-.16.24-.36.43-.61.56-.25.13-.56.2-.92.2-.37 0-.67-.06-.92-.19-.24-.13-.43-.31-.57-.55a2.62 2.62 0 0 1-.3-.87 6.75 6.75 0 0 1-.09-1.16c0-.43.04-.82.11-1.16.07-.35.18-.64.34-.89.16-.24.36-.43.61-.56.25-.13.56-.2.92-.2.37 0 .68.06.92.19s.44.31.58.55c.14.24.24.53.3.87s.07.72.07 1.15zm-1.11.05c0-.26-.01-.48-.02-.68-.01-.2-.04-.37-.06-.51a2.36 2.36 0 0 0-.11-.37.72.72 0 0 0-.16-.24.571.571 0 0 0-.21-.13.71.71 0 0 0-.26-.04c-.16 0-.3.04-.41.12-.11.08-.19.2-.25.36-.06.16-.11.36-.13.59-.03.24-.04.51-.04.82 0 .38.02.7.05.95.03.25.08.45.14.6.07.15.15.25.25.31s.23.09.37.09c.11 0 .2-.02.29-.05s.16-.09.22-.16.11-.16.16-.26c.04-.11.08-.23.1-.37.03-.14.04-.3.05-.47.02-.15.02-.35.02-.56zm5.27 2.25c0 .08 0 .14-.01.2-.01.05-.02.1-.04.13s-.03.05-.05.07c-.02.01-.04.02-.07.02H8.82c-.02 0-.04-.01-.06-.02-.02-.01-.04-.04-.05-.07-.02-.03-.03-.08-.04-.13-.01-.05-.01-.12-.01-.2 0-.08 0-.15.01-.2.01-.05.02-.1.03-.13.02-.03.03-.06.05-.07.02-.02.04-.02.07-.02h1v-3.51l-.87.48c-.06.03-.12.05-.16.06-.04.01-.07 0-.1-.02a.225.225 0 0 1-.05-.12c-.01-.06-.01-.14-.01-.25v-.16c0-.04.01-.08.02-.11s.03-.06.05-.07c.02-.02.05-.04.08-.06l1.16-.75c.01-.01.03-.02.05-.03.02-.01.05-.01.08-.02.03 0 .08-.01.13-.01h.21c.11 0 .19 0 .26.01.07 0 .11.01.15.02.03.01.06.02.07.04.01.02.02.04.02.06v4.45h.88c.02 0 .05.01.07.02.02.02.04.04.05.07.02.03.03.08.03.13.02.04.02.11.02.19zm4.48-2.3c0 .43-.03.82-.1 1.17s-.18.64-.34.89c-.16.24-.36.43-.61.56-.25.13-.56.2-.92.2-.37 0-.67-.06-.92-.19-.24-.13-.43-.31-.57-.55a2.62 2.62 0 0 1-.3-.87 6.75 6.75 0 0 1-.09-1.16c0-.43.04-.82.11-1.16.07-.35.18-.64.34-.89.16-.24.36-.43.61-.56.25-.13.56-.2.92-.2.37 0 .68.06.92.19s.44.31.58.55.24.53.3.87c.05.33.07.72.07 1.15zm-1.1.05c0-.26-.01-.48-.02-.68-.01-.2-.04-.37-.06-.51a2.36 2.36 0 0 0-.11-.37.72.72 0 0 0-.16-.24.571.571 0 0 0-.21-.13.71.71 0 0 0-.26-.04c-.16 0-.3.04-.41.12-.11.08-.19.2-.25.36-.06.16-.11.36-.13.59-.03.24-.04.51-.04.82 0 .38.02.7.05.95.03.25.08.45.14.6.07.15.15.25.25.31s.23.09.37.09c.11 0 .2-.02.29-.05.08-.03.16-.09.22-.16s.11-.16.16-.26c.04-.11.08-.23.1-.37.03-.14.04-.3.05-.47.02-.15.02-.35.02-.56zm5.43-.05c0 .43-.03.82-.1 1.17s-.18.64-.34.89c-.16.24-.36.43-.61.56-.25.13-.56.2-.92.2-.37 0-.67-.06-.92-.19-.24-.13-.43-.31-.57-.55a2.62 2.62 0 0 1-.3-.87 6.75 6.75 0 0 1-.09-1.16c0-.43.04-.82.11-1.16.07-.35.18-.64.34-.89.16-.24.36-.43.61-.56.25-.13.56-.2.92-.2.37 0 .68.06.92.19s.44.31.58.55c.14.24.24.53.3.87.04.33.07.72.07 1.15zm-1.11.05c0-.26-.01-.48-.02-.68-.01-.2-.04-.37-.06-.51a2.36 2.36 0 0 0-.11-.37.72.72 0 0 0-.16-.24.571.571 0 0 0-.21-.13.71.71 0 0 0-.26-.04c-.16 0-.3.04-.41.12-.11.08-.19.2-.25.36-.06.16-.11.36-.13.59-.02.24-.04.51-.04.82 0 .38.02.7.05.95.03.25.08.45.14.6.07.15.15.25.25.31s.23.09.37.09c.11 0 .2-.02.29-.05.08-.03.16-.09.22-.16s.11-.16.16-.26c.04-.11.08-.23.1-.37.03-.14.04-.3.05-.47.02-.15.02-.35.02-.56zm5.27 2.25c0 .08 0 .14-.01.2-.01.05-.02.1-.04.13s-.03.05-.05.07c-.02.01-.04.02-.07.02h-2.97c-.02 0-.04-.01-.06-.02-.02-.01-.04-.04-.05-.07-.02-.03-.03-.08-.04-.13-.01-.05-.01-.12-.01-.2 0-.08 0-.15.01-.2.01-.05.02-.1.03-.13.02-.03.03-.06.05-.07.02-.02.04-.02.07-.02h1v-3.51l-.87.48c-.06.03-.12.05-.16.06-.04.01-.07 0-.1-.02a.225.225 0 0 1-.05-.12c-.01-.06-.01-.14-.01-.25v-.16c0-.04.01-.08.02-.11s.03-.06.05-.07c.02-.02.05-.04.08-.06l1.16-.75c.01-.01.03-.02.05-.03.02-.01.05-.01.08-.02.03 0 .08-.01.13-.01h.21c.11 0 .19 0 .26.01.07 0 .11.01.15.02.03.01.06.02.07.04.01.02.02.04.02.06v4.45h.88c.02 0 .05.01.07.02.02.02.04.04.05.07.02.03.03.08.03.13.02.04.02.11.02.19zm4.48-2.3c0 .43-.03.82-.1 1.17s-.18.64-.34.89c-.16.24-.36.43-.61.56-.25.13-.56.2-.92.2-.37 0-.67-.06-.92-.19-.24-.13-.43-.31-.57-.55a2.62 2.62 0 0 1-.3-.87 6.75 6.75 0 0 1-.09-1.16c0-.43.04-.82.11-1.16.07-.35.18-.64.34-.89.16-.24.36-.43.61-.56.25-.13.56-.2.92-.2.37 0 .68.06.92.19s.44.31.58.55c.14.24.24.53.3.87.05.33.07.72.07 1.15zm-1.1.05c0-.26-.01-.48-.02-.68-.01-.2-.04-.37-.06-.51a2.36 2.36 0 0 0-.11-.37.72.72 0 0 0-.16-.24.571.571 0 0 0-.21-.13.71.71 0 0 0-.26-.04c-.16 0-.3.04-.41.12-.11.08-.19.2-.25.36-.06.16-.11.36-.13.59-.03.24-.04.51-.04.82 0 .38.02.7.05.95.03.25.08.45.14.6.07.15.15.25.25.31s.23.09.37.09c.11 0 .2-.02.29-.05s.16-.09.22-.16.11-.16.16-.26c.04-.11.08-.23.1-.37.03-.14.04-.3.05-.47.02-.15.02-.35.02-.56zm5.27 2.25c0 .08 0 .14-.01.2-.01.05-.02.1-.04.13s-.03.05-.05.07c-.02.01-.04.02-.07.02h-2.97c-.02 0-.04-.01-.06-.02-.02-.01-.04-.04-.05-.07-.02-.03-.03-.08-.04-.13-.01-.05-.01-.12-.01-.2 0-.08 0-.15.01-.2.01-.05.02-.1.03-.13.02-.03.03-.06.05-.07.02-.02.04-.02.07-.02h1v-3.51l-.87.48c-.06.03-.12.05-.16.06-.04.01-.07 0-.1-.02a.225.225 0 0 1-.05-.12c-.01-.06-.01-.14-.01-.25v-.16c0-.04.01-.08.02-.11s.03-.06.05-.07c.02-.02.05-.04.08-.06l1.16-.75c.01-.01.03-.02.05-.03.02-.01.05-.01.08-.02.03 0 .08-.01.13-.01h.21c.11 0 .19 0 .26.01.07 0 .11.01.15.02.03.01.06.02.07.04.01.02.02.04.02.06v4.45h.88c.03 0 .05.01.07.02.02.02.04.04.05.07.02.03.03.08.03.13.02.04.02.11.02.19zm4.32 0c0 .08 0 .14-.01.2-.01.05-.02.1-.04.13s-.03.05-.05.07c-.02.01-.04.02-.07.02h-2.97c-.02 0-.04-.01-.06-.02-.02-.01-.04-.04-.05-.07-.02-.03-.03-.08-.04-.13-.01-.05-.01-.12-.01-.2 0-.08 0-.15.01-.2.01-.05.02-.1.03-.13.02-.03.03-.06.05-.07.02-.02.04-.02.07-.02h1v-3.51l-.87.48c-.06.03-.12.05-.16.06-.04.01-.07 0-.1-.02s-.04-.06-.05-.12c-.01-.06-.01-.14-.01-.25v-.16c0-.04.01-.08.02-.11s.03-.06.05-.07c.02-.02.05-.04.08-.06l1.16-.75c.01-.01.03-.02.05-.03.02-.01.05-.01.08-.02.03 0 .08-.01.13-.01h.21c.11 0 .19 0 .26.01.07 0 .11.01.15.02.03.01.06.02.07.04.01.02.02.04.02.06v4.45h.88c.03 0 .05.01.07.02.02.02.04.04.05.07.02.03.03.08.03.13.02.04.02.11.02.19zm4.48-2.3c0 .43-.03.82-.1 1.17s-.18.64-.34.89c-.16.24-.36.43-.61.56-.25.13-.56.2-.92.2-.37 0-.67-.06-.92-.19-.24-.13-.43-.31-.57-.55a2.62 2.62 0 0 1-.3-.87 6.75 6.75 0 0 1-.09-1.16c0-.43.04-.82.11-1.16.07-.35.18-.64.34-.89.16-.24.36-.43.61-.56.25-.13.56-.2.92-.2.37 0 .68.06.92.19s.44.31.58.55c.14.24.24.53.3.87s.07.72.07 1.15zm-1.1.05c0-.26-.01-.48-.02-.68-.01-.2-.04-.37-.06-.51a2.36 2.36 0 0 0-.11-.37.72.72 0 0 0-.16-.24.571.571 0 0 0-.21-.13.71.71 0 0 0-.26-.04c-.16 0-.3.04-.41.12-.11.08-.19.2-.25.36-.06.16-.11.36-.13.59-.03.24-.04.51-.04.82 0 .38.02.7.05.95.03.25.08.45.14.6.07.15.15.25.25.31s.23.09.37.09c.11 0 .2-.02.29-.05.08-.03.16-.09.22-.16s.11-.16.16-.26c.04-.11.08-.23.1-.37.03-.14.04-.3.05-.47.01-.15.02-.35.02-.56zm5.43-.05c0 .43-.03.82-.1 1.17s-.18.64-.34.89c-.16.24-.36.43-.61.56-.25.13-.56.2-.92.2-.37 0-.67-.06-.92-.19-.24-.13-.43-.31-.57-.55a2.62 2.62 0 0 1-.3-.87 6.75 6.75 0 0 1-.09-1.16c0-.43.04-.82.11-1.16.07-.35.18-.64.34-.89.16-.24.36-.43.61-.56.25-.13.56-.2.92-.2.37 0 .68.06.92.19s.44.31.58.55c.14.24.24.53.3.87s.07.72.07 1.15zm-1.11.05c0-.26-.01-.48-.02-.68-.01-.2-.04-.37-.06-.51a2.36 2.36 0 0 0-.11-.37.72.72 0 0 0-.16-.24.571.571 0 0 0-.21-.13.71.71 0 0 0-.26-.04c-.16 0-.3.04-.41.12-.11.08-.19.2-.25.36-.06.16-.11.36-.13.59-.03.24-.04.51-.04.82 0 .38.02.7.05.95.03.25.08.45.14.6.07.15.15.25.25.31s.23.09.37.09c.11 0 .2-.02.29-.05.08-.03.16-.09.22-.16s.11-.16.16-.26c.04-.11.08-.23.1-.37.03-.14.04-.3.05-.47.02-.15.02-.35.02-.56zm5.27 2.25c0 .08 0 .14-.01.2-.01.05-.02.1-.04.13s-.03.05-.05.07c-.02.01-.04.02-.07.02h-2.97c-.02 0-.04-.01-.06-.02-.02-.01-.04-.04-.05-.07-.02-.03-.03-.08-.04-.13-.01-.05-.01-.12-.01-.2 0-.08 0-.15.01-.2.01-.05.02-.1.03-.13.02-.03.03-.06.05-.07.02-.02.04-.02.07-.02h1v-3.51l-.87.48c-.06.03-.12.05-.16.06-.04.01-.07 0-.1-.02a.225.225 0 0 1-.05-.12c-.01-.06-.01-.14-.01-.25v-.16c0-.04.01-.08.02-.11s.03-.06.05-.07c.02-.02.05-.04.08-.06l1.16-.75c.01-.01.03-.02.05-.03.02-.01.05-.01.08-.02.03 0 .08-.01.13-.01h.21c.11 0 .19 0 .26.01.07 0 .11.01.15.02.03.01.06.02.07.04.01.02.02.04.02.06v4.45h.88c.02 0 .05.01.07.02.02.02.04.04.05.07.02.03.03.08.03.13.02.04.02.11.02.19zm4.48-2.3c0 .43-.03.82-.1 1.17s-.18.64-.34.89c-.16.24-.36.43-.61.56-.25.13-.56.2-.92.2-.37 0-.67-.06-.92-.19-.24-.13-.43-.31-.57-.55a2.62 2.62 0 0 1-.3-.87 6.75 6.75 0 0 1-.09-1.16c0-.43.04-.82.11-1.16s.18-.64.34-.89c.16-.24.36-.43.61-.56.25-.13.56-.2.92-.2.37 0 .68.06.92.19s.44.31.58.55c.14.24.24.53.3.87.05.33.07.72.07 1.15zm-1.1.05c0-.26-.01-.48-.02-.68-.01-.2-.04-.37-.06-.51a2.36 2.36 0 0 0-.11-.37.72.72 0 0 0-.16-.24.571.571 0 0 0-.21-.13.71.71 0 0 0-.26-.04c-.16 0-.3.04-.41.12-.11.08-.19.2-.25.36-.06.16-.11.36-.13.59-.02.24-.04.51-.04.82 0 .38.02.7.05.95.03.25.08.45.14.6.07.15.15.25.25.31s.23.09.37.09c.11 0 .2-.02.29-.05.08-.03.16-.09.22-.16s.11-.16.16-.26c.04-.11.08-.23.1-.37.03-.14.04-.3.05-.47.01-.15.02-.35.02-.56zm5.43-.05c0 .43-.03.82-.1 1.17s-.18.64-.34.89c-.16.24-.36.43-.61.56-.25.13-.56.2-.92.2-.37 0-.67-.06-.92-.19-.24-.13-.43-.31-.57-.55a2.62 2.62 0 0 1-.3-.87 6.75 6.75 0 0 1-.09-1.16c0-.43.04-.82.11-1.16.07-.35.18-.64.34-.89.16-.24.36-.43.61-.56.25-.13.56-.2.92-.2.37 0 .68.06.92.19s.44.31.58.55.24.53.3.87c.04.33.07.72.07 1.15zm-1.11.05c0-.26-.01-.48-.02-.68-.01-.2-.04-.37-.06-.51a2.36 2.36 0 0 0-.11-.37.72.72 0 0 0-.16-.24.571.571 0 0 0-.21-.13.71.71 0 0 0-.26-.04c-.16 0-.3.04-.41.12-.11.08-.19.2-.25.36-.06.16-.11.36-.13.59-.02.24-.04.51-.04.82 0 .38.02.7.05.95.03.25.08.45.14.6.07.15.15.25.25.31s.23.09.37.09c.11 0 .2-.02.29-.05.08-.03.16-.09.22-.16s.11-.16.16-.26c.04-.11.08-.23.1-.37.03-.14.04-.3.05-.47.02-.15.02-.35.02-.56zm5.27 2.25c0 .08 0 .14-.01.2-.01.05-.02.1-.04.13s-.03.05-.05.07c-.02.01-.04.02-.07.02H60.7c-.02 0-.04-.01-.06-.02-.02-.01-.04-.04-.05-.07-.02-.03-.03-.08-.04-.13-.01-.05-.01-.12-.01-.2 0-.08 0-.15.01-.2.01-.05.02-.1.03-.13.02-.03.03-.06.05-.07.02-.02.04-.02.07-.02h1v-3.51l-.87.48c-.06.03-.12.05-.16.06-.04.01-.07 0-.1-.02-.02-.02-.04-.06-.05-.12s-.01-.14-.01-.25v-.16c0-.04.01-.08.02-.11s.03-.06.05-.07c.02-.02.05-.04.08-.06l1.16-.75c.01-.01.03-.02.05-.03.02-.01.05-.01.08-.02.03 0 .08-.01.13-.01h.21c.11 0 .19 0 .26.01.07 0 .11.01.15.02.03.01.06.02.07.04.01.02.02.04.02.06v4.45h.88c.03 0 .05.01.07.02.02.02.04.04.05.07.02.03.03.08.03.13.02.04.02.11.02.19zM3.32 44.51c0 .08 0 .14-.01.2-.01.05-.02.1-.04.13s-.03.05-.05.07c-.02.01-.04.02-.07.02H.18c-.02 0-.04-.01-.06-.02-.02-.01-.04-.04-.05-.07-.02-.03-.03-.08-.04-.13-.01-.05-.01-.12-.01-.2 0-.08 0-.15.01-.2.01-.05.02-.1.03-.13.02-.03.03-.06.05-.07.02-.02.04-.02.07-.02h1v-3.51l-.87.48c-.06.03-.12.05-.16.06-.04.01-.07 0-.1-.03a.225.225 0 0 1-.05-.12V40.56c0-.04.01-.08.02-.11s.03-.06.05-.08c.02-.02.05-.04.08-.06l1.16-.75c.01-.01.03-.02.05-.03.02-.01.05-.01.08-.02.03 0 .08-.01.13-.01h.21c.11 0 .19 0 .26.01.07 0 .11.01.15.02.03.01.06.02.07.04.01.02.02.04.02.06v4.45h.88c.03 0 .05.01.07.02.02.02.04.04.05.07.02.03.03.08.03.13 0 .07.01.13.01.21zm4.48-2.29c0 .43-.03.82-.1 1.17s-.18.64-.34.89c-.16.24-.36.43-.61.56-.25.13-.56.2-.92.2-.37 0-.67-.06-.92-.19s-.43-.31-.57-.55c-.14-.24-.24-.53-.3-.87s-.09-.73-.09-1.16c0-.43.04-.82.11-1.16.07-.35.18-.64.34-.89.16-.24.36-.43.61-.56.25-.13.56-.2.92-.2.37 0 .68.06.92.19s.44.31.58.55c.14.24.24.53.3.87s.07.71.07 1.15zm-1.11.05c0-.26-.01-.48-.02-.68-.01-.2-.04-.37-.06-.51a2.36 2.36 0 0 0-.11-.37.72.72 0 0 0-.16-.24.571.571 0 0 0-.21-.13c-.08-.02-.16-.04-.26-.04-.16 0-.3.04-.41.12-.11.08-.19.2-.25.36-.06.16-.11.36-.13.59-.03.24-.04.51-.04.82 0 .38.02.7.05.95.03.25.08.45.14.6.07.15.15.25.25.31s.23.09.37.09c.11 0 .2-.02.29-.05.08-.03.16-.09.22-.16s.11-.16.16-.26c.04-.11.08-.23.1-.37.03-.14.04-.3.05-.47.02-.16.02-.35.02-.56zm5.27 2.24c0 .08 0 .14-.01.2-.01.05-.02.1-.04.13s-.03.05-.05.07c-.02.01-.04.02-.07.02H8.82c-.02 0-.04-.01-.06-.02-.02-.01-.04-.04-.05-.07-.02-.03-.03-.08-.04-.13-.01-.05-.01-.12-.01-.2 0-.08 0-.15.01-.2.01-.05.02-.1.03-.13.02-.03.03-.06.05-.07.02-.02.04-.02.07-.02h1v-3.51l-.87.48c-.06.03-.12.05-.16.06-.04.01-.07 0-.1-.03a.225.225 0 0 1-.05-.12c-.01-.06-.01-.14-.01-.25v-.16c0-.04.01-.08.02-.11s.03-.06.05-.08c.02-.02.05-.04.08-.06l1.16-.75c.01-.01.03-.02.05-.03.02-.01.05-.01.08-.02.03 0 .08-.01.13-.01h.21c.11 0 .19 0 .26.01.07 0 .11.01.15.02.03.01.06.02.07.04.01.02.02.04.02.06v4.45h.88c.02 0 .05.01.07.02.02.02.04.04.05.07.02.03.03.08.03.13.02.07.02.13.02.21zm4.48-2.29c0 .43-.03.82-.1 1.17s-.18.64-.34.89c-.16.24-.36.43-.61.56-.25.13-.56.2-.92.2-.37 0-.67-.06-.92-.19-.24-.13-.43-.31-.57-.55a2.62 2.62 0 0 1-.3-.87 6.75 6.75 0 0 1-.09-1.16c0-.43.04-.82.11-1.16.07-.35.18-.64.34-.89.16-.24.36-.43.61-.56.25-.13.56-.2.92-.2.37 0 .68.06.92.19s.44.31.58.55c.14.24.24.53.3.87.05.32.07.71.07 1.15zm-1.1.05c0-.26-.01-.48-.02-.68-.01-.2-.04-.37-.06-.51a2.36 2.36 0 0 0-.11-.37c-.04-.1-.1-.18-.16-.24s-.13-.1-.21-.13c-.08-.02-.16-.04-.26-.04-.16 0-.3.04-.41.12-.11.08-.19.2-.25.36-.06.16-.11.36-.13.59-.03.24-.04.51-.04.82 0 .38.02.7.05.95.03.25.08.45.14.6.07.15.15.25.25.31s.23.09.37.09c.11 0 .2-.02.29-.05.08-.03.16-.09.22-.16s.11-.16.16-.26c.04-.11.08-.23.1-.37.03-.14.04-.3.05-.47s.02-.35.02-.56zm5.43-.05c0 .43-.03.82-.1 1.17s-.18.64-.34.89c-.16.24-.36.43-.61.56-.25.13-.56.2-.92.2-.37 0-.67-.06-.92-.19-.24-.13-.43-.31-.57-.55a2.62 2.62 0 0 1-.3-.87 6.75 6.75 0 0 1-.09-1.16c0-.43.04-.82.11-1.16.07-.35.18-.64.34-.89.16-.24.36-.43.61-.56s.56-.2.92-.2c.37 0 .68.06.92.19s.44.31.58.55c.14.24.24.53.3.87.04.32.07.71.07 1.15zm-1.11.05c0-.26-.01-.48-.02-.68-.01-.2-.04-.37-.06-.51a2.36 2.36 0 0 0-.11-.37.72.72 0 0 0-.16-.24.571.571 0 0 0-.21-.13c-.08-.02-.16-.04-.26-.04-.16 0-.3.04-.41.12-.11.08-.19.2-.25.36s-.11.36-.13.59c-.02.24-.04.51-.04.82 0 .38.02.7.05.95.03.25.08.45.14.6.07.15.15.25.25.31s.23.09.37.09c.11 0 .2-.02.29-.05.08-.03.16-.09.22-.16s.11-.16.16-.26c.04-.11.08-.23.1-.37.03-.14.04-.3.05-.47.02-.16.02-.35.02-.56zm5.43-.05c0 .43-.03.82-.1 1.17s-.18.64-.34.89-.36.43-.61.56c-.25.13-.56.2-.92.2-.37 0-.67-.06-.92-.19-.24-.13-.43-.31-.57-.55a2.62 2.62 0 0 1-.3-.87 6.75 6.75 0 0 1-.09-1.16c0-.43.04-.82.11-1.16.07-.35.18-.64.34-.89.16-.24.36-.43.61-.56.25-.13.56-.2.92-.2.37 0 .68.06.92.19s.44.31.58.55c.14.24.24.53.3.87.04.32.07.71.07 1.15zm-1.1.05c0-.26-.01-.48-.02-.68-.01-.2-.04-.37-.06-.51a2.36 2.36 0 0 0-.11-.37.72.72 0 0 0-.16-.24.571.571 0 0 0-.21-.13c-.08-.02-.16-.04-.26-.04-.16 0-.3.04-.41.12-.11.08-.19.2-.25.36s-.11.36-.13.59c-.02.24-.04.51-.04.82 0 .38.02.7.05.95.03.25.08.45.14.6.07.15.15.25.25.31s.23.09.37.09c.11 0 .2-.02.29-.05.08-.03.16-.09.22-.16s.11-.16.16-.26c.04-.11.08-.23.1-.37.03-.14.04-.3.05-.47.01-.16.02-.35.02-.56zm5.27 2.24c0 .08 0 .14-.01.2-.01.05-.02.1-.04.13s-.03.05-.05.07c-.02.01-.04.02-.07.02h-2.97c-.02 0-.04-.01-.06-.02-.02-.01-.04-.04-.05-.07-.02-.03-.03-.08-.04-.13-.01-.05-.01-.12-.01-.2 0-.08 0-.15.01-.2.01-.05.02-.1.03-.13.02-.03.03-.06.05-.07.02-.02.04-.02.07-.02h1v-3.51l-.87.48c-.06.03-.12.05-.16.06-.04.01-.07 0-.1-.03a.225.225 0 0 1-.05-.12c-.01-.06-.01-.14-.01-.25v-.16c0-.04.01-.08.02-.11s.03-.06.05-.08c.02-.02.05-.04.08-.06l1.16-.75c.01-.01.03-.02.05-.03.02-.01.05-.01.08-.02s.08-.01.13-.01h.21c.11 0 .19 0 .26.01.07 0 .11.01.15.02.03.01.06.02.07.04.01.02.02.04.02.06v4.45h.88c.03 0 .05.01.07.02.02.02.04.04.05.07.02.03.03.08.03.13.01.07.02.13.02.21zm4.48-2.29c0 .43-.03.82-.1 1.17s-.18.64-.34.89c-.16.24-.36.43-.61.56-.25.13-.56.2-.92.2-.37 0-.67-.06-.92-.19-.24-.13-.43-.31-.57-.55-.14-.24-.24-.53-.3-.87s-.09-.73-.09-1.16c0-.43.04-.82.11-1.16.07-.35.18-.64.34-.89.16-.24.36-.43.61-.56.25-.13.56-.2.92-.2.37 0 .68.06.92.19s.44.31.58.55c.14.24.24.53.3.87.04.32.07.71.07 1.15zm-1.11.05c0-.26-.01-.48-.02-.68-.01-.2-.04-.37-.06-.51a2.36 2.36 0 0 0-.11-.37.72.72 0 0 0-.16-.24.571.571 0 0 0-.21-.13c-.08-.02-.16-.04-.26-.04-.16 0-.3.04-.41.12-.11.08-.19.2-.25.36-.06.16-.11.36-.13.59-.03.24-.04.51-.04.82 0 .38.02.7.05.95.03.25.08.45.14.6.07.15.15.25.25.31s.23.09.37.09c.11 0 .2-.02.29-.05.08-.03.16-.09.22-.16s.11-.16.16-.26c.04-.11.08-.23.1-.37.03-.14.04-.3.05-.47.02-.16.02-.35.02-.56zm5.43-.05c0 .43-.03.82-.1 1.17s-.18.64-.34.89-.36.42-.62.55c-.25.13-.56.2-.92.2-.37 0-.67-.06-.92-.19s-.43-.31-.57-.55c-.14-.24-.24-.53-.3-.87s-.09-.73-.09-1.16c0-.43.04-.82.11-1.16.07-.35.18-.64.34-.89.16-.24.36-.43.61-.56.25-.13.56-.2.92-.2.37 0 .68.06.92.19s.44.31.58.55c.14.24.24.53.3.87.05.33.08.72.08 1.16zm-1.1.05c0-.26-.01-.48-.02-.68-.01-.2-.04-.37-.06-.51a2.36 2.36 0 0 0-.11-.37c-.04-.1-.1-.18-.16-.24s-.13-.1-.21-.13c-.08-.02-.16-.04-.26-.04-.16 0-.3.04-.41.12-.11.08-.19.2-.25.36-.06.16-.11.36-.13.59-.02.24-.04.51-.04.82 0 .38.02.7.05.95.03.25.08.45.14.6.07.15.15.25.25.31s.23.09.37.09c.11 0 .2-.02.29-.05.08-.03.16-.09.22-.16s.11-.16.16-.26c.04-.11.08-.23.1-.37.03-.14.04-.3.05-.47.01-.16.02-.35.02-.56zm5.27 2.24c0 .08 0 .14-.01.2-.01.05-.02.1-.04.13s-.03.05-.05.07c-.02.01-.04.02-.07.02h-2.97c-.02 0-.04-.01-.06-.02-.02-.01-.04-.04-.05-.07-.02-.03-.03-.08-.04-.13-.01-.05-.01-.12-.01-.2 0-.08 0-.15.01-.2.01-.05.02-.1.03-.13.02-.03.03-.06.05-.07.02-.02.04-.02.07-.02h1v-3.51l-.87.48c-.06.03-.12.05-.16.06-.04.01-.07 0-.1-.03a.225.225 0 0 1-.05-.12c-.01-.06-.01-.14-.01-.25v-.16c0-.04.01-.08.02-.11s.03-.06.05-.08c.02-.02.05-.04.08-.06l1.16-.75c.01-.01.03-.02.05-.03.02-.01.05-.01.08-.02.03 0 .08-.01.13-.01h.21c.11 0 .19 0 .26.01.07 0 .11.01.15.02.03.01.06.02.07.04.01.02.02.04.02.06v4.45h.88c.02 0 .05.01.07.02.02.02.04.04.05.07.02.03.03.08.03.13.01.07.02.13.02.21zm4.48-2.29c0 .43-.03.82-.1 1.17s-.18.64-.34.89c-.16.24-.36.43-.61.56-.25.13-.56.2-.92.2-.37 0-.67-.06-.92-.19s-.43-.31-.57-.55a2.62 2.62 0 0 1-.3-.87 6.75 6.75 0 0 1-.09-1.16c0-.43.04-.82.11-1.16.07-.35.18-.64.34-.89.16-.24.36-.43.61-.56.25-.13.56-.2.92-.2.37 0 .68.06.92.19s.44.31.58.55c.14.24.24.53.3.87s.07.71.07 1.15zm-1.11.05c0-.26-.01-.48-.02-.68-.01-.2-.04-.37-.06-.51a2.36 2.36 0 0 0-.11-.37c-.04-.1-.1-.18-.16-.24s-.13-.1-.21-.13c-.08-.02-.16-.04-.26-.04-.16 0-.3.04-.41.12-.11.08-.19.2-.25.36-.06.16-.11.36-.13.59-.03.24-.04.51-.04.82 0 .38.02.7.05.95.03.25.08.45.14.6.07.15.15.25.25.31s.23.09.37.09c.11 0 .2-.02.29-.05.08-.03.16-.09.22-.16s.11-.16.16-.26c.04-.11.08-.23.1-.37.03-.14.04-.3.05-.47.02-.16.02-.35.02-.56zm5.27 2.24c0 .08 0 .14-.01.2-.01.05-.02.1-.04.13s-.03.05-.05.07c-.02.01-.04.02-.07.02h-2.97c-.02 0-.04-.01-.06-.02-.02-.01-.04-.04-.05-.07-.02-.03-.03-.08-.04-.13-.01-.05-.01-.12-.01-.2 0-.08 0-.15.01-.2.01-.05.02-.1.03-.13.02-.03.03-.06.05-.07.02-.02.04-.02.07-.02h1v-3.51l-.87.48c-.06.03-.12.05-.16.06-.04.01-.07 0-.1-.03a.225.225 0 0 1-.05-.12c-.01-.06-.01-.14-.01-.25v-.16c0-.04.01-.08.02-.11s.03-.06.05-.08c.02-.02.05-.04.08-.06l1.16-.75c.01-.01.03-.02.05-.03.02-.01.05-.01.08-.02.03 0 .08-.01.13-.01h.21c.11 0 .19 0 .26.01.07 0 .11.01.15.02.03.01.06.02.07.04.01.02.02.04.02.06v4.45h.88c.02 0 .05.01.07.02.02.02.04.04.05.07.02.03.03.08.03.13.02.07.02.13.02.21zm4.48-2.29c0 .43-.03.82-.1 1.17s-.18.64-.34.89c-.16.24-.36.43-.61.56-.25.13-.56.2-.92.2-.37 0-.67-.06-.92-.19-.24-.13-.43-.31-.57-.55a2.62 2.62 0 0 1-.3-.87 6.75 6.75 0 0 1-.09-1.16c0-.43.04-.82.11-1.16.07-.35.18-.64.34-.89.16-.24.36-.43.61-.56s.56-.2.92-.2c.37 0 .68.06.92.19s.44.31.58.55c.14.24.24.53.3.87.05.32.07.71.07 1.15zm-1.1.05c0-.26-.01-.48-.02-.68-.01-.2-.04-.37-.06-.51a2.36 2.36 0 0 0-.11-.37c-.04-.1-.1-.18-.16-.24s-.13-.1-.21-.13c-.08-.02-.16-.04-.26-.04-.16 0-.3.04-.41.12-.11.08-.19.2-.25.36s-.11.36-.13.59c-.02.24-.04.51-.04.82 0 .38.02.7.05.95.03.25.08.45.14.6.07.15.15.25.25.31s.23.09.37.09c.11 0 .2-.02.29-.05.08-.03.16-.09.22-.16s.11-.16.16-.26c.04-.11.08-.23.1-.37.03-.14.04-.3.05-.47.01-.16.02-.35.02-.56zm5.27 2.24c0 .08 0 .14-.01.2-.01.05-.02.1-.04.13s-.03.05-.05.07c-.02.01-.04.02-.07.02h-2.97c-.02 0-.04-.01-.06-.02-.02-.01-.04-.04-.05-.07-.02-.03-.03-.08-.04-.13-.01-.05-.01-.12-.01-.2 0-.08 0-.15.01-.2.01-.05.02-.1.03-.13.02-.03.03-.06.05-.07.02-.02.04-.02.07-.02h1v-3.51l-.87.48c-.06.03-.12.05-.16.06-.04.01-.07 0-.1-.03-.02-.02-.04-.06-.05-.12s-.01-.14-.01-.25v-.16c0-.04.01-.08.02-.11s.03-.06.05-.08.05-.04.08-.06l1.16-.75c.01-.01.03-.02.05-.03.02-.01.05-.01.08-.02s.08-.01.13-.01h.21c.11 0 .19 0 .26.01.07 0 .11.01.15.02.03.01.06.02.07.04.01.02.02.04.02.06v4.45h.88c.03 0 .05.01.07.02.02.02.04.04.05.07.02.03.03.08.03.13.01.07.02.13.02.21zm4.32 0c0 .08 0 .14-.01.2-.01.05-.02.1-.04.13s-.03.05-.05.07c-.02.01-.04.02-.07.02H60.7c-.02 0-.04-.01-.06-.02-.02-.01-.04-.04-.05-.07-.02-.03-.03-.08-.04-.13-.01-.05-.01-.12-.01-.2 0-.08 0-.15.01-.2.01-.05.02-.1.03-.13.02-.03.03-.06.05-.07.02-.02.04-.02.07-.02h1v-3.51l-.87.48c-.06.03-.12.05-.16.06-.04.01-.07 0-.1-.03-.02-.02-.04-.06-.05-.12s-.01-.14-.01-.25v-.16c0-.04.01-.08.02-.11s.03-.06.05-.08c.02-.02.05-.04.08-.06l1.16-.75c.01-.01.03-.02.05-.03.02-.01.05-.01.08-.02.03 0 .08-.01.13-.01h.21c.11 0 .19 0 .26.01.07 0 .11.01.15.02.03.01.06.02.07.04.01.02.02.04.02.06v4.45h.88c.03 0 .05.01.07.02.02.02.04.04.05.07.02.03.03.08.03.13.02.07.02.13.02.21zM3.32 54.75c0 .08 0 .14-.01.2-.01.05-.02.1-.04.13s-.03.05-.05.07c-.02.01-.04.02-.07.02H.18c-.02 0-.04-.01-.06-.02-.02-.01-.04-.04-.05-.07a.25.25 0 0 1-.04-.13c-.01-.05-.01-.12-.01-.2 0-.08 0-.15.01-.2.01-.05.02-.1.03-.13.02-.03.03-.06.05-.07.02-.02.04-.02.07-.02h1v-3.51l-.87.48c-.06.03-.12.05-.16.06-.04.01-.07 0-.1-.02a.225.225 0 0 1-.05-.12V50.8c0-.04.01-.08.02-.11s.03-.06.05-.08c.02-.02.05-.04.08-.06l1.16-.75c.01-.01.03-.02.05-.03.02-.01.05-.01.08-.02.03 0 .08-.01.13-.01h.21c.11 0 .19 0 .26.01.07 0 .11.01.15.02.03.01.06.02.07.04.01.02.02.04.02.06v4.45h.88c.03 0 .05.01.07.02.02.02.04.04.05.07.02.03.03.08.03.13 0 .06.01.13.01.21zm4.48-2.3c0 .43-.03.82-.1 1.17s-.18.64-.34.89c-.16.24-.36.43-.61.56-.25.13-.56.2-.92.2-.37 0-.67-.06-.92-.19-.24-.13-.43-.31-.57-.55-.14-.24-.24-.53-.3-.87s-.09-.73-.09-1.16c0-.43.04-.82.11-1.16.07-.35.18-.64.34-.89.16-.24.36-.43.61-.56.25-.13.56-.2.92-.2.37 0 .68.06.92.19s.44.31.58.55c.14.24.24.53.3.87s.07.72.07 1.15zm-1.11.06c0-.26-.01-.48-.02-.68-.01-.2-.04-.37-.06-.51a2.36 2.36 0 0 0-.11-.37.72.72 0 0 0-.16-.24.571.571 0 0 0-.21-.13.71.71 0 0 0-.26-.04c-.16 0-.3.04-.41.12-.11.08-.19.2-.25.36-.06.16-.11.36-.13.59-.03.24-.04.51-.04.82 0 .38.02.7.05.95.03.25.08.45.14.6.07.15.15.25.25.31s.23.09.37.09c.11 0 .2-.02.29-.05.08-.03.16-.09.22-.16s.11-.16.16-.26c.04-.11.08-.23.1-.37.03-.14.04-.3.05-.47.02-.16.02-.35.02-.56zm5.27 2.24c0 .08 0 .14-.01.2-.01.05-.02.1-.04.13s-.03.05-.05.07c-.02.01-.04.02-.07.02H8.82c-.02 0-.04-.01-.06-.02-.02-.01-.04-.04-.05-.07a.4.4 0 0 1-.04-.13c-.01-.05-.01-.12-.01-.2 0-.08 0-.15.01-.2.01-.05.02-.1.03-.13.02-.03.03-.06.05-.07.02-.02.04-.02.07-.02h1v-3.51l-.87.48c-.06.03-.12.05-.16.06-.04.01-.07 0-.1-.02a.225.225 0 0 1-.05-.12c-.01-.06-.01-.14-.01-.25v-.16c0-.04.01-.08.02-.11s.03-.06.05-.08c.02-.02.05-.04.08-.06l1.16-.75c.01-.01.03-.02.05-.03.02-.01.05-.01.08-.02.03 0 .08-.01.13-.01h.21c.11 0 .19 0 .26.01.07 0 .11.01.15.02.03.01.06.02.07.04.01.02.02.04.02.06v4.45h.88c.02 0 .05.01.07.02.02.02.04.04.05.07.02.03.03.08.03.13.02.05.02.12.02.2zm4.48-2.3c0 .43-.03.82-.1 1.17s-.18.64-.34.89c-.16.24-.36.43-.61.56-.25.13-.56.2-.92.2-.37 0-.67-.06-.92-.19-.24-.13-.43-.31-.57-.55a2.62 2.62 0 0 1-.3-.87 6.75 6.75 0 0 1-.09-1.16c0-.43.04-.82.11-1.16.07-.35.18-.64.34-.89.16-.24.36-.43.61-.56.25-.13.56-.2.92-.2.37 0 .68.06.92.19s.44.31.58.55c.14.24.24.53.3.87.05.33.07.72.07 1.15zm-1.1.06c0-.26-.01-.48-.02-.68-.01-.2-.04-.37-.06-.51a2.36 2.36 0 0 0-.11-.37c-.04-.1-.1-.18-.16-.24s-.13-.1-.21-.13a.71.71 0 0 0-.26-.04c-.16 0-.3.04-.41.12-.11.08-.19.2-.25.36-.06.16-.11.36-.13.59-.03.24-.04.51-.04.82 0 .38.02.7.05.95.03.25.08.45.14.6.07.15.15.25.25.31s.23.09.37.09c.11 0 .2-.02.29-.05.08-.03.16-.09.22-.16s.11-.16.16-.26c.04-.11.08-.23.1-.37.03-.14.04-.3.05-.47s.02-.35.02-.56zm5.27 2.24c0 .08 0 .14-.01.2-.01.05-.02.1-.04.13s-.03.05-.05.07c-.02.01-.04.02-.07.02h-2.97c-.02 0-.04-.01-.06-.02-.02-.01-.04-.04-.05-.07a.332.332 0 0 1-.04-.13c-.01-.05-.01-.12-.01-.2 0-.08 0-.15.01-.2s.02-.1.03-.13c.02-.03.03-.06.05-.07.02-.02.04-.02.07-.02h1v-3.51l-.87.48c-.06.03-.12.05-.16.06-.04.01-.07 0-.1-.02a.225.225 0 0 1-.05-.12c-.01-.06-.01-.14-.01-.25v-.16c0-.04.01-.08.02-.11s.03-.06.05-.08c.02-.02.05-.04.08-.06l1.16-.75c.01-.01.03-.02.05-.03.02-.01.05-.01.08-.02.03 0 .08-.01.13-.01h.21c.11 0 .19 0 .26.01.07 0 .11.01.15.02.03.01.06.02.07.04.01.02.02.04.02.06v4.45h.88c.02 0 .05.01.07.02.02.02.04.04.05.07.02.03.03.08.03.13.02.05.02.12.02.2zm4.32 0c0 .08 0 .14-.01.2-.01.05-.02.1-.04.13s-.03.05-.05.07c-.02.01-.04.02-.07.02h-2.97c-.02 0-.04-.01-.06-.02-.02-.01-.04-.04-.05-.07a.332.332 0 0 1-.04-.13c-.01-.05-.01-.12-.01-.2 0-.08 0-.15.01-.2.01-.05.02-.1.03-.13.02-.03.03-.06.05-.07.02-.02.04-.02.07-.02h1v-3.51l-.87.48c-.06.03-.12.05-.16.06-.04.01-.07 0-.1-.02a.225.225 0 0 1-.05-.12c-.01-.06-.01-.14-.01-.25v-.16c0-.04.01-.08.02-.11s.03-.06.05-.08c.02-.02.05-.04.08-.06l1.16-.75c.01-.01.03-.02.05-.03.02-.01.05-.01.08-.02.03 0 .08-.01.13-.01h.21c.11 0 .19 0 .26.01.07 0 .11.01.15.02.03.01.06.02.07.04.01.02.02.04.02.06v4.45h.88c.02 0 .05.01.07.02.02.02.04.04.05.07.02.03.03.08.03.13.02.05.02.12.02.2zm4.48-2.3c0 .43-.03.82-.1 1.17s-.18.64-.34.89c-.16.24-.36.43-.61.56-.25.13-.56.2-.92.2-.37 0-.67-.06-.92-.19-.24-.13-.43-.31-.57-.55a2.62 2.62 0 0 1-.3-.87 6.75 6.75 0 0 1-.09-1.16c0-.43.04-.82.11-1.16.07-.35.18-.64.34-.89.16-.24.36-.43.61-.56.25-.13.56-.2.92-.2.37 0 .68.06.92.19s.44.31.58.55c.14.24.24.53.3.87.05.33.07.72.07 1.15zm-1.1.06c0-.26-.01-.48-.02-.68-.01-.2-.04-.37-.06-.51a2.36 2.36 0 0 0-.11-.37.72.72 0 0 0-.16-.24.571.571 0 0 0-.21-.13.71.71 0 0 0-.26-.04c-.16 0-.3.04-.41.12-.11.08-.19.2-.25.36-.06.16-.11.36-.13.59-.03.24-.04.51-.04.82 0 .38.02.7.05.95.03.25.08.45.14.6.07.15.15.25.25.31s.23.09.37.09c.11 0 .2-.02.29-.05.08-.03.16-.09.22-.16s.11-.16.16-.26c.04-.11.08-.23.1-.37.03-.14.04-.3.05-.47.02-.16.02-.35.02-.56zm5.27 2.24c0 .08 0 .14-.01.2-.01.05-.02.1-.04.13s-.03.05-.05.07c-.02.01-.04.02-.07.02h-2.97c-.02 0-.04-.01-.06-.02-.02-.01-.04-.04-.05-.07a.332.332 0 0 1-.04-.13c-.01-.05-.01-.12-.01-.2 0-.08 0-.15.01-.2.01-.05.02-.1.03-.13.02-.03.03-.06.05-.07.02-.02.04-.02.07-.02h1v-3.51l-.87.48c-.06.03-.12.05-.16.06-.04.01-.07 0-.1-.02a.225.225 0 0 1-.05-.12c-.01-.06-.01-.14-.01-.25v-.16c0-.04.01-.08.02-.11s.03-.06.05-.08c.02-.02.05-.04.08-.06l1.16-.75c.01-.01.03-.02.05-.03.02-.01.05-.01.08-.02.03 0 .08-.01.13-.01h.21c.11 0 .19 0 .26.01.07 0 .11.01.15.02.03.01.06.02.07.04.01.02.02.04.02.06v4.45h.88c.03 0 .05.01.07.02.02.02.04.04.05.07.02.03.03.08.03.13.02.05.02.12.02.2zm4.32 0c0 .08 0 .14-.01.2-.01.05-.02.1-.04.13s-.03.05-.05.07c-.02.01-.04.02-.07.02h-2.97c-.02 0-.04-.01-.06-.02-.02-.01-.04-.04-.05-.07a.332.332 0 0 1-.04-.13c-.01-.05-.01-.12-.01-.2 0-.08 0-.15.01-.2.01-.05.02-.1.03-.13.02-.03.03-.06.05-.07.02-.02.04-.02.07-.02h1v-3.51l-.87.48c-.06.03-.12.05-.16.06-.04.01-.07 0-.1-.02a.225.225 0 0 1-.05-.12c-.01-.06-.01-.14-.01-.25v-.16c0-.04.01-.08.02-.11s.03-.06.05-.08c.02-.02.05-.04.08-.06l1.16-.75c.01-.01.03-.02.05-.03.02-.01.05-.01.08-.02.03 0 .08-.01.13-.01h.21c.11 0 .19 0 .26.01.07 0 .11.01.15.02.03.01.06.02.07.04.01.02.02.04.02.06v4.45h.88c.03 0 .05.01.07.02.02.02.04.04.05.07.02.03.03.08.03.13.02.05.02.12.02.2zm4.48-2.3c0 .43-.03.82-.1 1.17s-.18.64-.34.89-.36.43-.61.56c-.25.13-.56.2-.92.2-.37 0-.67-.06-.92-.19-.24-.13-.43-.31-.57-.55-.14-.24-.24-.53-.3-.87s-.09-.73-.09-1.16c0-.43.04-.82.11-1.16.07-.35.18-.64.34-.89.16-.24.36-.43.61-.56.25-.13.56-.2.92-.2.37 0 .68.06.92.19s.44.31.58.55c.14.24.24.53.3.87s.07.72.07 1.15zm-1.1.06c0-.26-.01-.48-.02-.68-.01-.2-.04-.37-.06-.51a2.36 2.36 0 0 0-.11-.37c-.04-.1-.1-.18-.16-.24s-.13-.1-.21-.13a.71.71 0 0 0-.26-.04c-.16 0-.3.04-.41.12-.11.08-.19.2-.25.36-.06.16-.11.36-.13.59-.03.24-.04.51-.04.82 0 .38.02.7.05.95.03.25.08.45.14.6.07.15.15.25.25.31s.23.09.37.09c.11 0 .2-.02.29-.05.08-.03.16-.09.22-.16s.11-.16.16-.26c.04-.11.08-.23.1-.37.03-.14.04-.3.05-.47.01-.16.02-.35.02-.56zm5.27 2.24c0 .08 0 .14-.01.2-.01.05-.02.1-.04.13s-.03.05-.05.07c-.02.01-.04.02-.07.02h-2.97c-.02 0-.04-.01-.06-.02-.02-.01-.04-.04-.05-.07a.332.332 0 0 1-.04-.13c-.01-.05-.01-.12-.01-.2 0-.08 0-.15.01-.2.01-.05.02-.1.03-.13.02-.03.03-.06.05-.07.02-.02.04-.02.07-.02h1v-3.51l-.87.48c-.06.03-.12.05-.16.06-.04.01-.07 0-.1-.02a.225.225 0 0 1-.05-.12c-.01-.06-.01-.14-.01-.25v-.16c0-.04.01-.08.02-.11s.03-.06.05-.08c.02-.02.05-.04.08-.06l1.16-.75c.01-.01.03-.02.05-.03.02-.01.05-.01.08-.02.03 0 .08-.01.13-.01H45c.11 0 .19 0 .26.01.07 0 .11.01.15.02.03.01.06.02.07.04.01.02.02.04.02.06v4.45h.88c.02 0 .05.01.07.02.02.02.04.04.05.07.02.03.03.08.03.13.02.05.02.12.02.2zm4.48-2.3c0 .43-.03.82-.1 1.17s-.18.64-.34.89c-.16.24-.36.43-.61.56-.25.13-.56.2-.92.2-.37 0-.67-.06-.92-.19-.24-.13-.43-.31-.57-.55a2.62 2.62 0 0 1-.3-.87 6.75 6.75 0 0 1-.09-1.16c0-.43.04-.82.11-1.16.07-.35.18-.64.34-.89.16-.24.36-.43.61-.56.25-.13.56-.2.92-.2.37 0 .68.06.92.19s.44.31.58.55c.14.24.24.53.3.87s.07.72.07 1.15zm-1.1.06c0-.26-.01-.48-.02-.68-.01-.2-.04-.37-.06-.51a2.36 2.36 0 0 0-.11-.37.72.72 0 0 0-.16-.24.571.571 0 0 0-.21-.13.71.71 0 0 0-.26-.04c-.16 0-.3.04-.41.12-.11.08-.19.2-.25.36-.06.16-.11.36-.13.59-.02.24-.04.51-.04.82 0 .38.02.7.05.95.03.25.08.45.14.6.07.15.15.25.25.31s.23.09.37.09c.11 0 .2-.02.29-.05.08-.03.16-.09.22-.16s.11-.16.16-.26c.04-.11.08-.23.1-.37.03-.14.04-.3.05-.47s.02-.35.02-.56zm5.27 2.24c0 .08 0 .14-.01.2-.01.05-.02.1-.04.13s-.03.05-.05.07c-.02.01-.04.02-.07.02h-2.97c-.02 0-.04-.01-.06-.02-.02-.01-.04-.04-.05-.07a.332.332 0 0 1-.04-.13c-.01-.05-.01-.12-.01-.2 0-.08 0-.15.01-.2s.02-.1.03-.13c.02-.03.03-.06.05-.07.02-.02.04-.02.07-.02h1v-3.51l-.87.48c-.06.03-.12.05-.16.06-.04.01-.07 0-.1-.02a.225.225 0 0 1-.05-.12c-.01-.06-.01-.14-.01-.25v-.16c0-.04.01-.08.02-.11s.03-.06.05-.08c.02-.02.05-.04.08-.06l1.16-.75c.01-.01.03-.02.05-.03.02-.01.05-.01.08-.02.03 0 .08-.01.13-.01h.21c.11 0 .19 0 .26.01.07 0 .11.01.15.02.03.01.06.02.07.04.01.02.02.04.02.06v4.45h.88c.02 0 .05.01.07.02.02.02.04.04.05.07.02.03.03.08.03.13.01.05.02.12.02.2zm4.32 0c0 .08 0 .14-.01.2-.01.05-.02.1-.04.13s-.03.05-.05.07c-.02.01-.04.02-.07.02h-2.97c-.02 0-.04-.01-.06-.02-.02-.01-.04-.04-.05-.07a.332.332 0 0 1-.04-.13c-.01-.05-.01-.12-.01-.2 0-.08 0-.15.01-.2.01-.05.02-.1.03-.13.02-.03.03-.06.05-.07.02-.02.04-.02.07-.02h1v-3.51l-.87.48c-.06.03-.12.05-.16.06-.04.01-.07 0-.1-.02-.02-.02-.04-.06-.05-.12s-.01-.14-.01-.25v-.16c0-.04.01-.08.02-.11s.03-.06.05-.08c.02-.02.05-.04.08-.06l1.16-.75c.01-.01.03-.02.05-.03.02-.01.05-.01.08-.02.03 0 .08-.01.13-.01h.21c.11 0 .19 0 .26.01.07 0 .11.01.15.02.03.01.06.02.07.04.01.02.02.04.02.06v4.45h.88c.03 0 .05.01.07.02.02.02.04.04.05.07.02.03.03.08.03.13.01.05.02.12.02.2zm4.48-2.3c0 .43-.03.82-.1 1.17s-.18.64-.34.89c-.16.24-.36.43-.61.56-.25.13-.56.2-.92.2-.37 0-.67-.06-.92-.19-.24-.13-.43-.31-.57-.55a2.62 2.62 0 0 1-.3-.87 6.75 6.75 0 0 1-.09-1.16c0-.43.04-.82.11-1.16.07-.35.18-.64.34-.89.16-.24.36-.43.61-.56.25-.13.56-.2.92-.2.37 0 .68.06.92.19s.44.31.58.55c.14.24.24.53.3.87.04.33.07.72.07 1.15zm-1.1.06c0-.26-.01-.48-.02-.68-.01-.2-.04-.37-.06-.51a2.36 2.36 0 0 0-.11-.37.72.72 0 0 0-.16-.24.571.571 0 0 0-.21-.13.71.71 0 0 0-.26-.04c-.16 0-.3.04-.41.12-.11.08-.19.2-.25.36-.06.16-.11.36-.13.59-.03.24-.04.51-.04.82 0 .38.02.7.05.95.03.25.08.45.14.6.07.15.15.25.25.31s.23.09.37.09c.11 0 .2-.02.29-.05.08-.03.16-.09.22-.16s.11-.16.16-.26c.04-.11.08-.23.1-.37.03-.14.04-.3.05-.47.01-.16.02-.35.02-.56z" class="colora488b7 svgShape"></path></svg>