<?xml version="1.0" encoding="iso-8859-1"?>
<!-- Uploaded to: SVG Repo, www.svgrepo.com, Generator: SVG Repo Mixer Tools -->
<svg fill="#000000" height="800px" width="800px" version="1.1" id="Layer_1" xmlns="http://www.w3.org/2000/svg" xmlns:xlink="http://www.w3.org/1999/xlink" 
	 viewBox="0 0 496 496" xml:space="preserve">
<g>
	<g>
		<g>
			<path d="M364,336h40c11.032,0,20,8.968,20,20h16c0-19.848-16.152-36-36-36h-12v-16h-16v16h-12c-19.848,0-36,16.152-36,36
				c0,19.848,16.152,36,36,36h40c11.032,0,20,8.968,20,20c0,11.032-8.968,20-20,20h-40c-11.032,0-20-8.968-20-20h-16
				c0,19.848,16.152,36,36,36h12v16h16v-16h12c19.848,0,36-16.152,36-36c0-19.848-16.152-36-36-36h-40c-11.032,0-20-8.968-20-20
				C344,344.968,352.968,336,364,336z"/>
			<path d="M496,248C496,111.248,384.752,0,248,0S0,111.248,0,248c0,13.4,1.136,26.808,3.272,40H0v64h32v48h16v32H16v64h240v-48h32
				v-6.608C307.592,474.04,343.232,496,384,496c61.76,0,112-50.24,112-112c0-19.576-5.08-37.976-13.944-54.008
				C491.28,303.672,496,276.112,496,248z M479.792,240.008h-95.976V240c-0.752-32.08-5.912-60.584-13.856-85.704
				c38.608-9.736,62.464-22.344,74.256-29.84C465.504,158.144,478.344,197.64,479.792,240.008z M479.648,256
				c-0.656,19.432-3.656,38.528-9.064,57.056C450.032,288.008,418.856,272,384,272c-0.328,0-0.64,0.048-0.968,0.048
				c0.384-5.344,0.64-10.688,0.768-16.048H479.648z M435.176,111.144c-10.832,6.72-33.568,18.592-70.52,27.816
				c-23.464-61.8-63.008-100.976-88.544-121.2C341.264,25.68,398.16,60.664,435.176,111.144z M256,22.616
				c21.44,15.064,67.016,53.24,92.936,119.904c-25.24,5.176-56.04,8.92-92.936,9.4V22.616z M256,240v-72.08
				c39.144-0.488,71.704-4.48,98.312-10.032c7.704,23.992,12.744,51.304,13.504,82.12H288h-32V240z M256,272v-16h16v32h-32h-8H64
				v-32h16v16h16v-16h16v16h16v-16h16v16h16v-16h16v16h16v-16h16v16h16v-16h16v16H256z M80,368v-16h16v16h16v-16h16v16h16v-16h16v16
				h16v-16h16v16h16v-16h16v16h16v-16h16v32H56h-8v-32h16v16H80z M128.184,240c0.76-30.816,5.8-58.12,13.504-82.12
				c26.608,5.56,59.16,9.552,98.312,10.04V240H128.184z M240,151.92c-36.896-0.48-67.696-4.216-92.936-9.392
				C172.984,75.856,218.56,37.68,240,22.616V151.92z M219.88,17.768c-25.528,20.224-65.072,59.4-88.544,121.2
				c-36.952-9.232-59.688-21.096-70.52-27.816C97.84,60.664,154.736,25.68,219.88,17.768z M51.776,124.448
				c11.8,7.496,35.656,20.104,74.264,29.84c-7.936,25.128-13.104,53.632-13.856,85.712H48H16.2
				C17.648,197.64,30.488,158.136,51.776,124.448z M48,256v32H19.52c-1.84-10.552-2.952-21.256-3.32-32H48z M40,336h-8H16v-32h16v16
				h16v-16h16v16h16v-16h16v16h16v-16h16v16h16v-16h16v16h16v-16h16v16h16v-16h16v32H40z M240,480H32v-32h16v16h16v-16h16v16h16v-16
				h16v16h16v-16h16v16h16v-16h16v16h16v-16h16v16h16v-16h16V480z M272,432h-16h-8H64v-32h16v16h16v-16h16v16h16v-16h16v16h16v-16
				h16v16h16v-16h16v16h16v-16h16v16h16v-16h16V432z M272,384v-48h-32v-32h48v-48h79.8c-0.144,5.832-0.448,11.648-0.912,17.448
				C313.248,281.728,272,328.072,272,384z M384,480c-52.936,0-96-43.064-96-96c0-52.936,43.064-96,96-96c52.936,0,96,43.064,96,96
				C480,436.936,436.936,480,384,480z"/>
		</g>
	</g>
</g>
</svg>